<svg xmlns="http://www.w3.org/2000/svg" width="184" height="70" fill="none" xmlns:v="https://vecta.io/nano"><g clip-path="url(#A)"><g fill="#1b5a96"><path d="M86.971 24.868l3.189-7.157 2.644 3.385-5.833 3.772zm3.975-8.073l9.952 13.688 4.721-6.065 3.909-5.205 1.295-12.65-19.877 10.233z"/></g><path d="M111.346 1.467l-.252 2.458L121.791.915l-10.967 5.647-1.295 12.65L123.958 0l-12.612 1.467z" fill="#fb9100"/><g fill="#1b5a96"><path d="M95.653 3.292L76.622 5.505l5.35 4.512 1.866 1.574 27.255-7.666.252-2.458-15.692 1.825zm-10.615 9.84l1.755 10.507 2.573-8.223 21.558-9.845.092-.905-25.979 8.466z"/></g><g fill="#fb9100"><path d="M111.017 4.667l-.092.905 6.689-3.056-6.597 2.15zM26.519 65.722c0 1.191-.396 2.153-1.188 2.888s-1.79 1.103-2.996 1.103c-.956.009-1.889-.288-2.661-.844a2.88 2.88 0 0 1-1.281-2.254l-.143-3.288h-7.94l-1.971 3.1a15.94 15.94 0 0 1-1.521 1.948c-.459.486-.911.83-1.354 1.033a3.39 3.39 0 0 1-1.426.305c-1.172 0-2.138-.368-2.898-1.103S0 66.912 0 65.722c0-.344.103-.751.309-1.221a6.84 6.84 0 0 1 .499-.986l17.724-26.723a6.11 6.11 0 0 1 2.067-1.949c.828-.482 1.772-.734 2.732-.728.919 0 1.679.321 2.281.962s.904 1.464.906 2.465v28.179zM14.31 55.627h3.815v-5.723l-3.815 5.723z"/></g><g fill="#1b5a96"><path d="M73.713 55.627h3.814v-5.723l-3.814 5.723zm12.244 10.097c0 1.19-.396 2.153-1.188 2.888s-1.79 1.103-2.993 1.104c-.956.009-1.889-.287-2.661-.844a2.88 2.88 0 0 1-1.281-2.254l-.143-3.288h-7.94l-1.972 3.1a16.02 16.02 0 0 1-1.519 1.946c-.46.486-.912.83-1.355 1.033a3.39 3.39 0 0 1-1.421.305c-1.173 0-2.141-.368-2.903-1.103s-1.142-1.698-1.141-2.888c0-.344.103-.751.309-1.221.139-.341.306-.671.499-.986l17.724-26.723a6.11 6.11 0 0 1 2.067-1.949c.828-.482 1.772-.734 2.732-.728.919 0 1.679.321 2.281.962s.903 1.464.903 2.465v28.18zm25.483-9.77v9.581c.001.55-.107 1.094-.319 1.602a4.18 4.18 0 0 1-.917 1.358 4.22 4.22 0 0 1-1.374.905c-.513.209-1.064.316-1.619.315a3.64 3.64 0 0 1-1.592-.352 4.2 4.2 0 0 1-1.28-.939 3.99 3.99 0 0 1-.832-1.363 4.52 4.52 0 0 1-.285-1.573V38.436c0-1.19.372-2.175 1.117-2.955s1.702-1.172 2.874-1.174h7.271a10.82 10.82 0 0 1 4.3.844 10.3 10.3 0 0 1 3.398 2.325 10.51 10.51 0 0 1 2.209 3.452 11.47 11.47 0 0 1 .785 4.274c0 2.318-.452 4.251-1.355 5.8s-2.21 2.825-3.92 3.827l4.324 9.111c.282.553.428 1.165.427 1.785a3.76 3.76 0 0 1-.309 1.479c-.204.483-.503.922-.879 1.292-.389.382-.849.686-1.356.893a4.33 4.33 0 0 1-1.687.328 4.05 4.05 0 0 1-2.09-.591c-.674-.397-1.219-.975-1.572-1.667l-5.319-11.506zm0-13.526v5.777h3.041c.476 0 .871-.109 1.188-.328a2.71 2.71 0 0 0 .76-.775 3.03 3.03 0 0 0 .404-.962c.075-.308.115-.623.12-.94a3.49 3.49 0 0 0-.12-.844 2.83 2.83 0 0 0-.404-.892c-.2-.292-.459-.539-.76-.728-.317-.203-.712-.306-1.188-.306l-3.041-.001z"/></g><path d="M59.526 45.105c-.902-2.082-2.191-3.978-3.801-5.589a18.1 18.1 0 0 0-5.655-3.799 16.76 16.76 0 0 0-1.986-.715 17.69 17.69 0 0 0-4.975-.694h-7.413c-1.299 0-2.384.422-3.255 1.267s-1.306 1.924-1.306 3.24v26.438a3.84 3.84 0 0 0 .356 1.62c.465 1.023 1.294 1.842 2.329 2.302.514.233 1.073.353 1.639.352h7.65a18.43 18.43 0 0 0 2.363-.149c1.586-.201 3.134-.625 4.599-1.259 4.265-1.811 7.654-5.186 9.455-9.416.937-2.158 1.413-4.484 1.398-6.833a16.64 16.64 0 0 0-1.398-6.763zm-7.532 10.614c-.45 1.127-1.129 2.151-1.995 3.008a8.95 8.95 0 0 1-3.042 1.973c-.277.111-.56.208-.849.293a10.63 10.63 0 0 1-2.999.412h-3.757V42.428h3.994c1.394 0 2.669.235 3.826.705.096.039.19.084.285.123a8.72 8.72 0 0 1 2.685 1.825 8.5 8.5 0 0 1 1.904 2.982c.454 1.218.679 2.507.665 3.804-.002 1.408-.241 2.692-.716 3.851z" fill="#fb9100"/><g fill="#1b5a96"><path d="M97.571 35.266c-.74-.719-1.645-1.101-2.716-1.146h-.213a4.07 4.07 0 0 0-1.569.286 4.04 4.04 0 0 0-1.334.864c-.804.768-1.205 1.716-1.204 2.842v27.611c0 1.126.401 2.073 1.204 2.841.382.373.835.668 1.334.865a4.07 4.07 0 0 0 1.569.286l.213-.004c1.071-.044 1.976-.426 2.716-1.147.787-.767 1.181-1.714 1.182-2.841V38.108c0-1.127-.394-2.075-1.182-2.842zm48.083 20.594c1.171 0 2.145-.392 2.922-1.174s1.165-1.753 1.164-2.911a3.92 3.92 0 0 0-1.164-2.865c-.776-.785-1.75-1.176-2.922-1.174h-8.078v-5.307h8.078c1.171 0 2.145-.399 2.922-1.197a4.02 4.02 0 0 0 .876-1.328 3.97 3.97 0 0 0 .288-1.56c0-1.126-.388-2.081-1.164-2.865s-1.75-1.176-2.922-1.175h-12.209c-1.138 0-2.105.392-2.902 1.175s-1.193 1.753-1.189 2.911v27.05a3.94 3.94 0 0 0 .296 1.564c.204.496.508.947.893 1.324a3.91 3.91 0 0 0 1.742 1.044 4.25 4.25 0 0 0 1.156.154h12.209c1.171 0 2.145-.391 2.922-1.174s1.165-1.738 1.164-2.865a3.99 3.99 0 0 0-.288-1.56 4.02 4.02 0 0 0-.876-1.328 3.95 3.95 0 0 0-.97-.736c-.601-.314-1.273-.472-1.952-.461h-8.078V55.86h8.082zm36.945-10.755l-.145-.322a18.07 18.07 0 0 0-3.657-5.268 18.07 18.07 0 0 0-5.654-3.799 17.33 17.33 0 0 0-6.962-1.409h-7.413c-1.3 0-2.384.422-3.255 1.267s-1.306 1.924-1.307 3.24v26.438a3.83 3.83 0 0 0 .357 1.62 4.61 4.61 0 0 0 2.328 2.302 3.96 3.96 0 0 0 1.639.352h7.651c2.395.015 4.766-.465 6.962-1.409 4.264-1.811 7.654-5.186 9.456-9.416a16.92 16.92 0 0 0 1.402-6.833c.011-2.326-.467-4.629-1.402-6.763zm-7.53 10.614a8.84 8.84 0 0 1-1.996 3.008 8.95 8.95 0 0 1-3.041 1.974 10.25 10.25 0 0 1-3.849.705h-3.757V42.428h3.992c1.393 0 2.668.235 3.825.705a8.8 8.8 0 0 1 2.97 1.949 8.5 8.5 0 0 1 1.9 2.982c.035.089.065.18.096.27.388 1.139.581 2.333.57 3.534.001 1.408-.236 2.692-.71 3.851z"/></g></g><defs><clipPath id="A"><path fill="#fff" d="M0 0h184v69.714H0z"/></clipPath></defs></svg>