<svg xmlns="http://www.w3.org/2000/svg" width="80" height="80" fill="none" xmlns:v="https://vecta.io/nano"><g clip-path="url(#A)"><g fill="#92288d"><path d="M68 40c0-15.454-12.546-28-28-28a27.86 27.86 0 0 0-12.359 2.872 3.39 3.39 0 0 0-2.451-1.044c-1.878 0-3.402 1.524-3.402 3.402 0 .457.09.894.255 1.293a28.51 28.51 0 0 0-2.474 2.338 4.31 4.31 0 0 0-2.033-.507c-2.39 0-4.331 1.941-4.331 4.331a4.32 4.32 0 0 0 1.508 3.284A27.88 27.88 0 0 0 12 40c0 15.454 12.546 28 28 28a27.86 27.86 0 0 0 16.313-5.247c.778.741 1.829 1.196 2.987 1.196 2.39 0 4.331-1.941 4.331-4.331 0-1.133-.436-2.163-1.148-2.935A27.87 27.87 0 0 0 68 39.999V40zm-1.822-.903h-5.537a20.59 20.59 0 0 0-5.41-13.052l3.914-3.914c4.18 4.477 6.81 10.418 7.033 16.965v.001zM40.903 13.822c6.547.222 12.489 2.853 16.965 7.033l-3.914 3.914a20.58 20.58 0 0 0-13.052-5.41v-5.537h.001zM58.855 40c0 10.406-8.448 18.855-18.855 18.855S21.145 50.406 21.145 40 29.594 21.145 40 21.145 58.855 29.594 58.855 40zM25.189 15.634c.881 0 1.595.715 1.595 1.595s-.715 1.595-1.595 1.595-1.595-.715-1.595-1.595.715-1.595 1.595-1.595zm-7.654 6.527c1.393 0 2.525 1.131 2.525 2.524s-1.131 2.524-2.525 2.524-2.524-1.131-2.524-2.524 1.131-2.524 2.524-2.524zm-1.234 6.676a4.33 4.33 0 0 0 1.234.178c2.39 0 4.331-1.941 4.331-4.331a4.31 4.31 0 0 0-.913-2.659 26.41 26.41 0 0 1 2.196-2.075c.569.427 1.275.68 2.04.68 1.878 0 3.402-1.524 3.402-3.402a3.39 3.39 0 0 0-.088-.769 26.03 26.03 0 0 1 10.594-2.64v5.537a20.68 20.68 0 0 0-19.739 19.739h-5.536c.124-3.659 1-7.129 2.478-10.258h.001zm38.992 32.425c-4.304 3.103-9.587 4.932-15.293 4.932-14.155 0-25.701-11.251-26.178-25.29h5.537c.473 10.984 9.541 19.758 20.642 19.758 5.376 0 10.278-2.058 13.955-5.429l1.843 1.843a4.31 4.31 0 0 0-.828 2.545 4.33 4.33 0 0 0 .323 1.644l-.001-.001zm4.007.881c-1.393 0-2.525-1.131-2.525-2.525s1.131-2.525 2.525-2.525 2.524 1.131 2.524 2.525-1.131 2.525-2.524 2.525zm1.708-6.504c-.524-.226-1.102-.35-1.708-.35-.786 0-1.523.21-2.159.576l-1.91-1.91a20.58 20.58 0 0 0 5.41-13.052h5.537a26.05 26.05 0 0 1-5.17 14.735v.001zM31.914 43.791h-3.541c-.499 0-.903.404-.903.903v6.79c0 .499.404.903.903.903h3.541c.499 0 .903-.404.903-.903v-6.79c0-.499-.404-.903-.903-.903zm-.903 6.79h-1.734v-4.984h1.734v4.984zm14.044-10.348h-3.538c-.499 0-.903.404-.903.903v10.349c0 .499.404.903.903.903h3.538c.499 0 .903-.404.903-.903V41.136c0-.499-.404-.903-.903-.903zm-.903 10.349H42.42V42.04h1.732v8.542zm7.476-17.406H48.09c-.499 0-.903.404-.903.903v17.405c0 .499.404.903.903.903h3.538c.499 0 .903-.404.903-.903V34.079c0-.499-.404-.903-.903-.903zm-.903 17.405h-1.732V34.983h1.732v15.599zM38.484 37.82h-3.538c-.499 0-.903.404-.903.903v12.761c0 .499.404.903.903.903h3.538c.499 0 .903-.404.903-.903V38.723c0-.499-.404-.903-.903-.903zm-.903 12.761h-1.732V39.626h1.732v10.955z" fill-opacity=".94"/></g><path d="M36.262 28.934c-1.428 0-2.596 1.166-2.596 2.598a2.58 2.58 0 0 0 .168.917l-2.902 2.527a2.58 2.58 0 0 0-1.242-.317c-1.43 0-2.597 1.166-2.597 2.597a2.6 2.6 0 0 0 2.597 2.595 2.6 2.6 0 0 0 2.597-2.595 2.58 2.58 0 0 0-.168-.918l2.902-2.527c.369.202.791.317 1.241.317.689 0 1.315-.27 1.782-.71l2.207 1.088a2.63 2.63 0 0 0-.014.267c0 1.428 1.166 2.596 2.598 2.596a2.6 2.6 0 0 0 2.596-2.596c0-.405-.094-.789-.26-1.132l3.203-3.343a2.58 2.58 0 0 0 1.033.215c1.43 0 2.598-1.166 2.598-2.598s-1.166-2.598-2.598-2.598a2.6 2.6 0 0 0-2.596 2.598c0 .405.094.789.26 1.132l-3.202 3.343c-.316-.138-.666-.215-1.033-.215-.69 0-1.318.271-1.783.711L38.847 31.8c.009-.088.014-.177.014-.268 0-1.43-1.167-2.598-2.598-2.598h-.001zm-6.571 9.109a.79.79 0 0 1-.79-.788.79.79 0 1 1 1.581 0 .79.79 0 0 1-.79.788zm6.571-5.722a.79.79 0 0 1-.789-.789c0-.435.355-.791.789-.791s.791.356.791.791a.79.79 0 0 1-.791.789zm13.143-5.197c.436 0 .791.356.791.791s-.356.791-.791.791a.79.79 0 1 1 0-1.583zm-6.571 6.859a.79.79 0 1 1 0 1.581c-.435 0-.791-.355-.791-.789s.356-.791.791-.791z" fill="#8ec640"/></g><defs><clipPath id="A"><path fill="#fff" transform="translate(12 12)" d="M0 0h56v56H0z"/></clipPath></defs></svg>