<svg xmlns="http://www.w3.org/2000/svg" width="74" height="70" fill="#fff" xmlns:v="https://vecta.io/nano"><path d="M73.793 20.782v14.01h-4.498v-14.01h4.498zm-5.854 4.298v9.711h-4.522V25.08h4.522zm-8.861-1.555l-1.332-1.31 5.683-5.646 1.931 1.812 5.573-5.388-.745-.857 3.654-.637-.697 3.698-.807-.771-6.966 6.846-2.078-1.972-4.216 4.225zm2.909 4.715v6.54h-4.461v-6.54h4.461zm-30.383 9.319l8.017 13.569c.526.894.293 1.372-.721 1.494l-22.207 2.804c-.403.049-.819.196-1.173.404l-5.756 3.405c-1.992 1.176-4.18.612-5.365-1.384l-3.63-6.135c-1.185-2.021-.623-4.225 1.393-5.425l5.781-3.441a2.97 2.97 0 0 0 .843-.772l13.126-18.173c.208-.294.403-.6.831-.588.416.012.611.306.807.624l6.832 11.56 1.222 2.057zm16.377-9.111c2.175 4.017 2.493 8.572.538 13.25-.464 1.102-1.552 1.555-2.542 1.114s-1.357-1.506-.917-2.596c1.625-3.931 1.283-7.691-1.173-11.156-1.955-2.755-4.73-4.249-8.091-4.592-.953-.098-1.601-.576-1.821-1.372-.367-1.274.623-2.486 1.98-2.388 2.31.159 4.461.857 6.453 2.021 2.224 1.31 3.997 3.098 5.573 5.719zM20.238 58.745l1.98-.245 5.597-.71c.33-.049.525.012.709.318l4.119 6.98c.672 1.139.403 2.143-.721 2.817l-3.019 1.788c-.953.551-2.029.331-2.591-.612l-5.964-10.079c-.037-.049-.049-.122-.098-.257h-.012zM41.271 31.84a7.53 7.53 0 0 1-.55 8.438c-.745.943-1.87 1.139-2.738.478-.88-.674-.978-1.8-.257-2.768.978-1.286 1.088-2.927.293-4.262s-2.273-2.008-3.874-1.776c-.917.135-1.699-.208-2.078-.931-.367-.698-.318-1.58.257-2.119.318-.306.782-.563 1.21-.637 3.031-.576 6.135.894 7.712 3.576h.025zm-19.26-16.275l.257-1.127.269-1.188c.024-.086 0-.147-.061-.196a1.51 1.51 0 0 1-.196-.196c-.086-.122-.183-.122-.33-.098l-2.126.49c-.086.024-.122 0-.159-.086l-1.21-2.915a.12.12 0 0 1 .061-.184l1.907-1.188c.073-.049.11-.098.11-.196V8.34c0-.098-.024-.147-.11-.196l-1.907-1.188c-.086-.049-.098-.098-.061-.184l1.21-2.915c.037-.086.073-.11.159-.086l2.2.514c.086.024.147 0 .196-.061a.87.87 0 0 1 .183-.184c.134-.098.134-.208.098-.355l-.477-2.07c0-.049-.024-.098-.024-.159L25.127.159c.037.049.061.098.085.135l1.149 1.861c.061.098.122.147.232.122a.74.74 0 0 1 .232 0c.147.024.232-.024.318-.159L28.28.269c.061-.098.11-.098.208-.061l2.872 1.2c.11.049.122.086.098.196l-.501 2.18c-.024.086-.012.135.049.184.049.037.098.073.122.122.134.196.293.208.513.147l2.017-.465c.073-.012.11-.024.147.061l1.234 3c0 .012 0 .037.012.061-.037.024-.086.049-.122.086l-1.858 1.151c-.098.061-.159.122-.134.245a.59.59 0 0 1 0 .208c-.037.171.037.269.183.355l1.784 1.102c.049.024.085.061.147.098l-.257.625-.99 2.4c-.037.098-.086.123-.196.098l-2.163-.502c-.11-.024-.171 0-.232.073 0 0-.012.024-.024.024-.281.171-.269.404-.196.698l.44 1.886c.024.098 0 .147-.086.184l-2.896 1.212c-.098.037-.134.012-.195-.061l-1.173-1.898c-.061-.098-.122-.135-.232-.11-.049 0-.098.012-.147 0-.232-.061-.355.073-.464.257l-1.088 1.751c-.037.061-.061.11-.159.073L21.999 15.6c-.012 0-.024-.012-.049-.037h.061zm1.063-.539l1.699.71a.82.82 0 0 0 .085-.135l1.051-1.69c.049-.086.098-.11.208-.11H27.4c.098 0 .159.025.208.098l1.051 1.69.086.135 1.699-.698c0-.049-.012-.073-.024-.11l-.464-1.996c-.024-.086 0-.147.061-.208l.904-.906c.073-.074.122-.11.232-.074l1.112.257.978.22.709-1.702c-.049-.037-.098-.061-.134-.086L32.156 9.38c-.098-.061-.122-.122-.122-.233V7.874c0-.098.012-.147.098-.196l1.711-1.065c.098-.061.098-.11.061-.208l-.599-1.445-.061-.135-.159.037-1.955.453c-.049 0-.122 0-.159-.037l-.966-.967c-.037-.037-.061-.11-.049-.159.037-.22.098-.429.147-.649l.342-1.482-1.699-.71-.086.135-1.051 1.69c-.049.086-.11.098-.196.098H26.13c-.098 0-.159-.012-.208-.098l-1.051-1.69-.085-.135-1.699.698c0 .061.024.11.037.159l.452 1.972c0 .049-.012.122-.049.159l-.929.943a.19.19 0 0 1-.22.061l-1.955-.465c-.098-.024-.147 0-.196.098l-.599 1.47-.037.122c.049.024.086.061.134.086l1.674 1.053c.086.049.122.11.11.22v1.286c0 .098-.012.147-.098.196l-1.699 1.065c-.037.024-.086.049-.122.086l.697 1.702.171-.037 1.931-.453c.061-.012.122-.024.183.037l.965.967c.037.037.061.11.049.159l-.183.808-.306 1.323h-.024zm.599-6.503a3.08 3.08 0 0 1 3.08-3.086c1.699 0 3.08 1.372 3.08 3.074s-1.381 3.098-3.08 3.098-3.08-1.384-3.08-3.086zm.917 0a2.163 2.163 0 1 0 4.326 0 2.163 2.163 0 1 0-4.326 0zm12.991 3.197l.195-.857.208-.906c.012-.061 0-.11-.049-.147-.049-.049-.11-.086-.147-.147-.061-.098-.147-.098-.245-.073l-1.613.38c-.073.012-.098 0-.122-.061l-.917-2.229c-.024-.073-.024-.098.049-.135l1.454-.906c.061-.037.086-.073.086-.147v-.257c0-.073-.024-.11-.086-.147l-1.454-.906c-.061-.037-.073-.073-.049-.135l.917-2.229c.024-.061.049-.086.122-.061l1.674.392c.061.012.11 0 .147-.049a.7.7 0 0 1 .134-.135c.098-.073.098-.159.073-.269l-.367-1.58c0-.037-.012-.073-.024-.122L39.952 0l.073.11.88 1.408c.049.073.086.11.183.098.061 0 .122-.012.171 0 .11.024.183-.024.232-.122l.868-1.408c.049-.073.085-.073.159-.049l2.188.906c.086.037.098.073.073.147L44.4 2.755c-.012.061 0 .11.037.147.037.024.073.061.098.098.098.147.22.159.391.11l1.54-.355c.049-.012.086-.012.11.049l.941 2.278c0 .012 0 .024.012.049-.024.024-.061.037-.098.061l-1.406.882c-.073.049-.122.098-.098.184v.159c-.025.135.024.196.134.269l1.357.845.11.073-.196.478-.758 1.825c-.037.073-.061.098-.147.073l-1.65-.38c-.073-.024-.135 0-.171.061l-.024.024c-.208.135-.208.306-.147.527l.342 1.433c.012.073 0 .11-.061.135l-2.212.918c-.073.037-.11.012-.147-.049l-.892-1.445c-.049-.073-.098-.098-.171-.086h-.11c-.183-.049-.269.049-.354.196l-.819 1.335c-.025.049-.049.086-.122.049l-2.273-.943c-.012 0-.024-.012-.037-.024v-.012zm.807-.416l1.295.539.061-.098.807-1.286c.037-.061.073-.086.159-.086h.978c.073 0 .122.012.159.073l.794 1.286.061.098 1.296-.539c0-.037 0-.061-.012-.074l-.355-1.519c-.012-.073 0-.11.049-.159l.697-.698c.049-.061.098-.086.171-.061l.843.196.745.171.538-1.298-.098-.061-1.271-.796a.18.18 0 0 1-.098-.184v-.967c0-.073 0-.11.073-.147l1.308-.808c.073-.049.073-.086.049-.159l-.452-1.102c-.012-.037-.024-.061-.049-.098-.049 0-.086.012-.122.025l-1.491.343c-.037 0-.098 0-.122-.037l-.733-.735c-.024-.024-.049-.086-.037-.122l.11-.49.257-1.127-1.296-.539c-.024.049-.049.073-.073.11l-.807 1.286c-.037.061-.086.073-.147.073h-.978c-.073 0-.122-.012-.159-.073L39.744.955l-.061-.098-1.295.539a.36.36 0 0 0 .025.122l.342 1.494c0 .037 0 .098-.037.122l-.709.723c-.049.061-.098.073-.171.049l-1.491-.355c-.073-.025-.11 0-.147.073l-.465 1.114c0 .024-.024.061-.037.086.037.024.061.049.098.061l1.271.796c.061.037.085.086.085.159v.98c0 .073-.012.11-.073.147l-1.296.808-.098.061.538 1.298c.049 0 .098-.024.134-.024l1.467-.343c.049 0 .086-.025.134.024l.733.735c.024.024.049.086.037.122l-.134.612-.232 1.004.024.037zm.464-4.948a2.35 2.35 0 0 1 2.346-2.351c1.296 0 2.346 1.053 2.346 2.339a2.35 2.35 0 0 1-2.346 2.351 2.35 2.35 0 0 1-2.346-2.351v.012zm.697 0c0 .918.733 1.653 1.65 1.641.917 0 1.638-.735 1.638-1.653s-.733-1.653-1.65-1.641c-.917 0-1.65.735-1.638 1.653zm29.857 60.851H51.11V45.874h18.296v21.333zm-1.027-19.986H57.514v.71h10.865v-.71zm0 1.8H57.514v.71h10.865v-.71zm0 1.8H57.514v.71h10.865v-.71zm0 1.8H52.137v.71h16.242v-.71zm0 1.8H52.137v.71h16.242v-.71zm0 1.8H52.137v.71h16.242v-.71zm-8.665 7.14h-7.577v.71h7.577v-.71zm0 1.8h-7.577v.71h7.577v-.71zm8.665-1.8h-7.577v.71h7.577v-.71zm0 1.8h-7.577v.71h7.577v-.71zm0-7.14H52.137v4.249h16.242v-4.249zM56.817 47.234h-4.681v4.311h4.681v-4.311z"/></svg>