<svg xmlns="http://www.w3.org/2000/svg" width="61" height="70" fill="none" xmlns:v="https://vecta.io/nano"><g clip-path="url(#A)" fill="#fff"><path d="M29.911 12.24c-10.056.296-18.602 8.745-19.044 18.841-.203 4.844 1.345 9.577 4.383 13.312 1.823 2.256 3.168 4.622 3.978 7.063l.11.333 2.063 13.294h1.971C24.514 67.966 27.296 70 30.556 70s6.041-2.052 7.183-4.918h1.971l2.155-13.867c.81-2.311 2.118-4.604 4.015-6.989 2.8-3.513 4.273-7.766 4.273-12.277a19.55 19.55 0 0 0-5.967-14.144c-3.849-3.753-8.914-5.75-14.274-5.565zm6.649 49.144H24.57l-1.271-8.191h14.532l-1.271 8.191zm-6.004 4.918a4.03 4.03 0 0 1-2.892-1.22h5.783c-.737.758-1.768 1.22-2.892 1.22zm12.432-24.387c-2.026 2.551-3.481 5.029-4.439 7.581H22.452c-.976-2.589-2.431-5.084-4.328-7.433-2.468-3.032-3.739-6.878-3.555-10.816.35-8.191 7.293-15.069 15.471-15.291a15.87 15.87 0 0 1 11.603 4.53 15.89 15.89 0 0 1 4.844 11.5c0 3.661-1.197 7.118-3.462 9.966l-.037-.037zm-26.246-9.966h2.578c0-4.4 2.597-8.431 6.594-10.243l-1.05-2.367c-4.936 2.219-8.122 7.174-8.122 12.591v.018zM30.5 20.726c1.51 0 2.965.296 4.347.888l.995-2.385c-1.694-.721-3.499-1.091-5.341-1.091v2.589zM31.789 0H29.21v6.804h2.579V0zm20.085 7.406l-4.871 4.89 1.823 1.83 4.871-4.89-1.823-1.83zM61 29.546h-6.704v2.588H61v-2.588zM9.127 7.398l-1.823 1.83 4.871 4.89 1.823-1.83-4.871-4.89zM6.704 29.546H0v2.588h6.704v-2.588z"/></g><defs><clipPath id="A"><path fill="#fff" d="M0 0h61v70H0z"/></clipPath></defs></svg>