<svg xmlns="http://www.w3.org/2000/svg" width="71" height="70" fill="#fff" xmlns:v="https://vecta.io/nano"><path d="M39.232 54.174L38.1 56.549c-.295.507-.224.853.212 1.211.365.3.696.646 1.014.992.896.945.908 2.248-.023 3.182l-3.667 3.586c-.766.726-1.78.715-2.57 0l-1.45-1.418c-.271-.277-.519-.334-.896-.173l-3.75 1.58c-.248.115-.483.438-.531.703-.082.473-.023.98-.023 1.464-.024 1.291-.873 2.237-2.169 2.283h-4.233c-1.273-.046-2.287-.992-2.146-2.214.201-1.66-.413-2.456-2.052-2.802-.802-.161-1.509-.703-2.299-1.003a.99.99 0 0 0-.825.115c-.507.403-.943.899-1.415 1.349-.896.842-1.898.853-2.771 0L4.98 61.956c-1.014-1.003-.99-2.294.024-3.332.448-.461 1.155-.899 1.262-1.43.094-.519-.436-1.153-.672-1.741l-.873-2.317c-.141-.427-.366-.623-.837-.599H2.316c-1.285-.035-2.24-.865-2.276-2.11v-4.865c.035-1.245.99-2.075 2.264-2.121.696-.023 1.568.173 2.052-.161.483-.323.554-1.199.837-1.822l1.002-2.11c.212-.404.177-.692-.165-1.003l-1.061-1.038c-.979-1.003-.979-2.306 0-3.274l3.525-3.447c.884-.853 1.875-.853 2.771-.012l1.415 1.349c.189.15.59.208.825.127l3.761-1.556a1.11 1.11 0 0 0 .531-.703c.082-.519 0-1.061.035-1.602.059-1.176.908-2.098 2.099-2.156h4.362c.307 0 .601.138.979.231-.755 3.078-.566 6.041.66 8.97l-1.556.404a10.6 10.6 0 0 0-5.742 4.381 2.37 2.37 0 0 1-.755.726c-3.195 1.983-4.763 5.707-3.856 9.258a8.6 8.6 0 0 0 7.864 6.445c2.04.104 3.808-.692 5.4-1.902.295-.219.719-.392 1.085-.392l9.963-.023h.884l.012.046zm6.417-19.523l1.12-4.508c2.486.726 4.796.138 6.906-1.372 1.697-1.211 2.793-2.848 3.276-4.854.978-4.024-1.178-8.105-4.996-9.788-3.83-1.683-8.638.104-10.747 4.347-1.355-.842-2.793-1.441-4.395-1.672-1.614-.231-3.17-.058-4.702.427-.212.069-.46.035-.684.058.024-.231 0-.484.082-.692.436-1.072.872-2.156 1.39-3.182.259-.519.224-.853-.212-1.21-.365-.3-.695-.646-1.013-.98-.896-.957-.907-2.248.023-3.182a177.4 177.4 0 0 1 3.665-3.586c.766-.738 1.779-.726 2.569 0 .495.461.978.934 1.449 1.418.295.311.566.323.966.138a66.34 66.34 0 0 1 3.63-1.499c.424-.161.636-.369.613-.819a16.33 16.33 0 0 1 0-1.533c.059-1.234.978-2.133 2.239-2.144 1.367-.023 2.734-.023 4.089 0 1.296.023 2.192.934 2.239 2.214.023.657-.165 1.476.165 1.937.33.45 1.19.53 1.803.796.766.334 1.532.669 2.274 1.049.389.196.66.184.966-.138a32.97 32.97 0 0 1 1.449-1.407c.813-.738 1.803-.726 2.616.035L66 7.986c1.002 1.003.978 2.306-.024 3.332-.46.461-1.155.899-1.261 1.43-.094.519.448 1.153.684 1.741a39.23 39.23 0 0 1 .872 2.317c.141.427.365.623.837.599.519-.023 1.049-.011 1.567 0 1.308.035 2.263.911 2.298 2.179a106.02 106.02 0 0 1 0 4.738c-.035 1.245-.931 2.11-2.215 2.179-.566.035-1.143-.035-1.697.046-.271.035-.624.265-.731.507a59.72 59.72 0 0 0-1.555 3.689.92.92 0 0 0 .118.761c.354.438.801.796 1.19 1.199.907.945.919 2.248 0 3.17l-3.618 3.539c-.825.784-1.838.784-2.663 0-.424-.404-.872-.795-1.249-1.222s-.707-.461-1.237-.23c-1.343.599-2.722 1.118-4.089 1.66-.295.115-.554.173-.79-.208-1.532-2.456-3.736-4.024-6.587-4.704-.059-.012-.118-.058-.141-.058h-.059zM40.859 51h-.757-19.333c-1.346 0-1.754-.395-1.754-1.675l.06-5.246c.228-3.594 3.268-6.618 6.969-7.06.553-.07.913.047 1.298.5 4.578 5.409 12.268 5.409 16.846 0 .36-.43.673-.535 1.225-.43 2.463.489 4.686 2.07 5.587 4.048-5.383 1.338-8.759 4.618-10.153 9.864h.012zm20.475 8.639l7.538 6.858.394.362c.857.793.973 1.796.301 2.566-.683.781-1.714.77-2.605-.047l-3.23-2.939-4.713-4.292c-5.315 3.721-11.417 1.668-14.161-2.216-2.848-4.036-2.385-9.599 1.146-13.086 3.462-3.417 8.985-3.802 12.91-.898 3.948 2.916 5.477 8.712 2.432 13.681l-.012.012zm-.915-5.552c.012-4.129-3.288-7.511-7.353-7.534-4.168-.023-7.55 3.312-7.55 7.476 0 4.152 3.312 7.523 7.422 7.534a7.47 7.47 0 0 0 7.48-7.476zM44 29.002c-.046 2.768-.843 5.268-2.738 7.336-3.281 3.586-8.375 3.54-11.61-.082-3.535-3.937-3.535-10.56-.012-14.497 3.35-3.75 8.652-3.668 11.875.187 1.698 2.033 2.449 4.416 2.484 7.056zm-2.518.082c-.035-2.406-.878-4.532-2.299-5.934-2.172-2.126-5.198-2.126-7.359 0-3.073 3.002-3.061 8.726.023 11.728 2.16 2.114 5.233 2.091 7.359-.047 1.606-1.612 2.229-3.633 2.287-5.747h-.012z"/></svg>