<svg xmlns="http://www.w3.org/2000/svg" width="56" height="61" fill="none" xmlns:v="https://vecta.io/nano"><g clip-path="url(#A)"><g fill="#fff"><path d="M30.733 40.024c0-5.386 3.234-10.011 7.824-11.939-1.315-1.049-2.879-1.756-4.611-1.959-3.463-.407-7.031-.385-10.505 0-4.382.471-7.782 4.112-8.461 8.609-.261 1.724-.042 3.512-.042 5.279h-.125c0 1.36.073 2.73-.021 4.09-.063.985.261 1.403 1.168 1.67 4.152 1.221 8.356 2.034 12.675 2.12a40.03 40.03 0 0 0 4.392-.139c-1.387-2.634-1.805-4.08-1.805-4.08-.334-1.146-.501-2.377-.501-3.651h.011zm-9.118-15.665c-1.867-1.981-2.827-4.294-3.036-7.035-2.994 0-5.894-.236-8.742.053C4.298 17.946.563 22.432.542 28.15l-.021 7.688c0 .675.177 1.017.845 1.167l7.063 1.66c1.419.289 2.89.364 4.465.557-.49-7.195 2.17-12.217 8.721-14.862zm33.947 12.4c.219-.203.386-.664.396-.974v-8.298c-.115-4.444-3.025-8.384-7.167-9.701-3.276-1.039-6.635-.386-10.015-.546-.219 2.795-1.148 5.129-3.078 7.131 2.003.803 3.63 1.831 4.924 3.062.876-.203 1.794-.311 2.733-.311 5.873 0 10.797 4.101 12.206 9.647v-.011zM28.626 25.323c4.507.021 8.221-3.801 8.179-8.416-.042-4.594-3.703-8.341-8.158-8.309-4.486.021-8.116 3.758-8.116 8.352s3.641 8.352 8.095 8.373zm-10.881-9.412c.438-.214.939-.675 1.054-1.114.542-2.206 1.596-4.058 3.223-5.611.292-.278.501-.824.49-1.231C22.366 3.523 18.736 0 14.386 0c-3.38 0-6.311 2.045-7.563 5.268-1.221 3.127-.459 6.735 1.92 9.08 2.41 2.388 5.988 3.03 9.003 1.563zm17.213-6.949c1.92 1.456 3.119 3.48 3.547 5.889.157.921.563 1.295 1.356 1.499 3.286.846 6.155.075 8.377-2.548 2.253-2.655 2.702-5.75 1.262-8.962C48.071 1.692 45.526.128 42.626 0c-4.34-.021-7.668 2.752-8.471 6.617-.209.974-.094 1.67.803 2.345zm-2.722 34.767a12.11 12.11 0 0 1-.469-3.394c0-6.639 5.258-12.014 11.747-12.014s11.747 5.375 11.747 12.014a12.51 12.51 0 0 1-.469 3.394S52.86 50.368 43.523 61c-9.358-10.643-11.298-17.271-11.298-17.271h.011zM43.502 33.9c-3.317 0-6.019 2.763-6.019 6.157s2.692 6.157 6.019 6.157 6.019-2.762 6.019-6.157S46.82 33.9 43.502 33.9z"/></g><g stroke="#fff" stroke-miterlimit="10"><path d="M21.616 47.134v3.469h-3.912v3.833h21.344"/><path d="M6.259 38.183v4.743H.521v4.968h5.738v9.894h37.274"/></g></g><defs><clipPath id="A"><path fill="#fff" d="M0 0h56v61H0z"/></clipPath></defs></svg>