<svg xmlns="http://www.w3.org/2000/svg" width="68" height="67" fill="#fff" xmlns:v="https://vecta.io/nano"><path d="M50.623 44.525v-2.372-2.62c-.011-.892.385-1.524 1.189-1.874.804-.339 1.517-.113 2.117.463l3.611 3.546 8.784 8.605c.906.881.951 2.033.045 2.913L53.894 65.427c-.611.598-1.347.745-2.128.418-.758-.328-1.143-.937-1.143-1.773v-4.427c0-.52-.158-.655-.668-.655l-25.503.011c-4.743.011-9.09-1.254-12.814-4.19C5.537 50 2.809 43.676 3.612 35.93c.34-3.286 1.528-6.279 3.385-9.012.532-.779 1.324-1.084 2.162-.869.736.192 1.381.869 1.37 1.671 0 .497-.204 1.061-.487 1.491-1.811 2.801-2.773 5.85-2.773 9.181 0 9.35 7.482 16.781 16.912 16.804l27.756.011c.453 0 .939.011 1.347.169.838.316 1.143 1.028 1.143 1.897v2.089c.057.023.124.056.181.079l7.313-7.668-7.324-7.679c-.057.023-.113.056-.17.079v1.954c.034 1.4-.713 2.202-2.105 2.202-9.486 0-18.961.045-28.446-.023-3.645-.023-6.441-1.762-8.365-4.844-.645-1.028-.374-2.202.577-2.767.939-.553 2.037-.248 2.683.779 1.29 2.066 3.147 3.049 5.581 3.049h25.436.815.023zM17.377 6.999h1.698 24.439c5.841 0 10.878 1.965 15.033 6.087 6.883 6.809 7.969 17.696 2.615 25.77-.679 1.028-1.789 1.287-2.751.666-.906-.587-1.109-1.728-.453-2.744 2.015-3.117 2.921-6.516 2.739-10.231-.374-7.193-5.762-13.664-12.814-15.234-1.347-.305-2.762-.474-4.143-.474l-28.005-.022c-1.404 0-2.162-.745-2.173-2.146V6.48l-7.777 7.623 7.641 7.973c.079-.35.125-.474.136-.598v-1.683c0-1.355.77-2.112 2.139-2.112H30.7h12.871c.407 0 .838.045 1.211.203.725.305 1.155 1.129 1.075 1.886a1.91 1.91 0 0 1-1.494 1.649c-.317.068-.657.079-.996.079H18.181c-.536 0-.804.275-.804.824v3.986c.023.915-.272 1.637-1.155 2.021-.917.395-1.653.068-2.309-.587L2.786 16.813l-1.155-1.141c-.883-.903-.883-1.965.023-2.857L12.113 2.527 13.981.698c.634-.621 1.358-.903 2.207-.531.838.361 1.189 1.028 1.177 1.942v4.912l.011-.023zm14.5 23.85c1.132-.44 2.173-.644 3.305-.328 1.913.531 3.181 2.033 3.317 3.693.079 1.028.102 2.078.011 3.117-.192 2.383-2.23 4.099-4.652 4.009-2.298-.079-4.211-1.999-4.234-4.325v-7.916c.023-1.988 1.381-3.625 3.26-4.054 1.924-.429 3.837.406 4.743 2.168.385.757.691 1.558.362 2.439-.204.542-.645.621-1.098.621-.419 0-.758-.192-.86-.655l-.226-.892c-.26-1.016-1.098-1.592-2.139-1.502A1.93 1.93 0 0 0 31.9 29.02c-.045.576 0 1.152 0 1.841l-.023-.011zm4.471 5.025h-.057v-1.129c-.045-1.141-.974-2.134-2.015-2.168-1.268-.034-2.309.813-2.389 2.033a20.23 20.23 0 0 0 0 2.484c.068 1.039.928 1.852 2.004 1.976.951.113 1.981-.52 2.253-1.491.158-.542.136-1.14.204-1.716v.011zm12.023-2.698v3.738c-.023 2.462-2.004 4.415-4.471 4.427-2.456 0-4.46-1.954-4.483-4.415V29.45c.068-2.609 1.89-4.472 4.551-4.506 2.422-.034 4.381 2.01 4.392 4.494v3.738h.011zm-2.253 0V29.63c0-1.434-.906-2.405-2.196-2.428-1.302-.023-2.219.937-2.23 2.383v7.092c0 1.423.94 2.405 2.23 2.405 1.268 0 2.207-1.005 2.207-2.428v-3.489l-.011.011zm-18.961-.441c1.483 1.423 1.596 3.185 1.324 5.003-.34 2.292-2.649 3.93-4.935 3.569-2.377-.373-4.075-2.575-3.769-4.867.079-.565.543-1.005 1.087-1.016a1.11 1.11 0 0 1 1.143 1.005c.034.271.011.542.057.802.159 1.095 1.109 1.897 2.162 1.852 1.155-.056 2.015-.937 2.049-2.1v-.87c0-1.332-.724-2.134-2.06-2.27-.521-.056-.996-.237-1.087-.757-.068-.361.011-.858.238-1.129.215-.26.679-.339 1.053-.406.883-.147 1.573-.689 1.777-1.536.215-.881.068-1.705-.657-2.326-1.223-1.039-3.09-.407-3.453 1.152-.045.181-.057.373-.079.553-.091.666-.566 1.073-1.189 1.028a1.09 1.09 0 0 1-1.053-1.174c0-1.197.453-2.236 1.313-3.072 1.709-1.649 4.347-1.683 6.045-.102a4.54 4.54 0 0 1 .396 6.2l-.385.44.023.023zM47.51 23.43c0-1.773 1.404-3.139 3.181-3.139a3.15 3.15 0 0 1 3.158 3.128c0 1.728-1.46 3.207-3.169 3.185-1.777-.023-3.169-1.412-3.158-3.173h-.011zm3.181-.892c-.487-.011-.928.407-.939.881 0 .474.362.87.838.892.532.034.917-.316.951-.836.023-.52-.351-.926-.849-.949v.011z"/></svg>