<svg width="58" height="58" viewBox="0 0 58 58" fill="none" xmlns="http://www.w3.org/2000/svg">
<path d="M31.4166 4.90582V9.78749C42.0258 11.0925 49.5416 20.735 48.2366 31.3442C47.1249 40.1408 40.2133 47.125 31.4166 48.1642V52.9975C44.7083 51.6683 54.3749 39.875 53.0458 26.5833C51.9583 15.1042 42.8474 6.04166 31.4166 4.90582ZM26.5833 4.97832C21.8708 5.43749 17.3758 7.24999 13.7024 10.295L17.1583 13.8717C19.8649 11.6967 23.1274 10.295 26.5833 9.81166V4.97832ZM10.2949 13.7025C7.27327 17.3694 5.41376 21.8541 4.9541 26.5833H9.78744C10.2466 23.1517 11.5999 19.8892 13.7508 17.1583L10.2949 13.7025ZM37.4583 20.5417L25.6649 32.335L20.5416 27.2117L17.9799 29.7733L25.6649 37.4583L40.0199 23.1033L37.4583 20.5417ZM4.97827 31.4167C5.4616 36.1533 7.32243 40.6242 10.3191 44.2975L13.7508 40.8417C11.6167 38.1098 10.2562 34.8546 9.8116 31.4167H4.97827ZM17.1583 44.3942L13.7024 47.705C17.3632 50.7565 21.8448 52.6568 26.5833 53.1667V48.3333C23.1453 47.8888 19.8901 46.5282 17.1583 44.3942Z" fill="#1B5A96"/>
</svg>
