<svg xmlns="http://www.w3.org/2000/svg" xmlns:xlink="http://www.w3.org/1999/xlink" width="52" height="52" fill="none" xmlns:v="https://vecta.io/nano"><g fill="#fff"><path d="M43.163 10.982c.914 0 1.654-.74 1.654-1.654s-.74-1.654-1.654-1.654-1.654.74-1.654 1.654a1.66 1.66 0 0 0 1.654 1.654zm0-2.129c.265 0 .482.216.482.482s-.216.482-.482.482c-.272 0-.482-.209-.482-.482a.48.48 0 0 1 .482-.482zM44.998 5H10.993a2.35 2.35 0 0 0-2.345 2.345v3.581H6.317a2.35 2.35 0 0 0-2.345 2.345v29.406a2.35 2.35 0 0 0 2.345 2.345h15.586v3.392a.59.59 0 0 0 .586.586h11.014a.59.59 0 0 0 .586-.586v-3.392h6.233a2.35 2.35 0 0 0 2.345-2.345v-3.581h2.331a2.35 2.35 0 0 0 2.345-2.345V7.345A2.35 2.35 0 0 0 44.998 5zM9.821 7.345c0-.649.53-1.173 1.173-1.173h34.005c.649 0 1.173.53 1.173 1.173v5.144H23.92l-2.617-2.715c-.202-.209-.482-.328-.768-.328H14.77c-.586 0-1.068.482-1.068 1.068v1.975H9.821V7.345zM6.317 43.856c-.649 0-1.173-.531-1.173-1.173V13.271c0-.649.53-1.172 1.173-1.172h2.331v24.659a2.35 2.35 0 0 0 2.345 2.345h12.731a2.71 2.71 0 0 1 .293 1.466h-.907a1.21 1.21 0 0 0-1.207 1.208v2.08H6.317zm21.1-12.277c.119-.209.335-.342.579-.342.363 0 .656.293.656.656a.66.66 0 0 1-.328.572c-.223.133-.488.119-.761-.035-.035-.021-.07-.049-.084-.084-.223-.356-.133-.635-.063-.768zm-.007-1.403a1.81 1.81 0 0 0-1.012.838c-.335.6-.293 1.333.098 1.961a1.48 1.48 0 0 0 .495.475c.321.181.67.279 1.012.279a1.83 1.83 0 0 0 .914-.244c.558-.328.907-.935.907-1.584 0-.803-.524-1.48-1.242-1.724v-3.015l5.186 9.36c-.007.007-.014.021-.035.028-1.836.475-3.036 2.192-2.938 4.02h-5.591c.105-1.836-1.103-3.553-2.973-4.076l5.179-9.332v3.015zm5.507 17.652h-9.841l.035-6.093h9.772c.021 0 .035.014.035.035v6.058zm8.578-5.151c0 .649-.53 1.173-1.173 1.173h-6.233v-2.08a1.21 1.21 0 0 0-1.208-1.207h-.907a2.77 2.77 0 0 1 .293-1.466h9.227v3.581zm3.504-4.746H33.405c.188-.105.391-.195.614-.251.37-.098.67-.356.824-.705a1.19 1.19 0 0 0-.056-1.054l-6.002-10.812a.89.89 0 0 0-.782-.468.92.92 0 0 0-.796.461L21.198 35.92c-.181.328-.196.719-.049 1.061a1.21 1.21 0 0 0 .817.698c.223.056.419.147.614.251H10.993c-.649 0-1.173-.53-1.173-1.173V13.662h3.978c.586 0 1.068-.482 1.068-1.068v-1.975h5.619l2.617 2.715c.202.209.482.328.768.328h22.3v23.089c0 .649-.524 1.18-1.173 1.18z"/><use xlink:href="#B"/><use xlink:href="#B" x="-3.999"/><path d="M39.296 18.771a2.33 2.33 0 0 0-.642 1.235h-8.201v-.921a1.14 1.14 0 0 0-1.138-1.138H26.67a1.14 1.14 0 0 0-1.138 1.138v.921h-8.194c-.077-.454-.293-.886-.642-1.242-.886-.872-2.401-.858-3.266.007a2.29 2.29 0 0 0-.677 1.633c0 .621.244 1.207.677 1.633.44.454 1.026.684 1.633.684.384 0 .775-.091 1.145-.279a2.06 2.06 0 0 0 .921-.949c.049-.105.091-.209.126-.314h5.688c-3.092 1.508-5.423 4.341-6.233 7.761h-.907a1.14 1.14 0 0 0-1.138 1.138v2.645a1.14 1.14 0 0 0 1.138 1.138h2.645a1.14 1.14 0 0 0 1.138-1.138v-2.645a1.14 1.14 0 0 0-1.138-1.138h-.53c.977-3.685 3.93-6.575 7.636-7.468v.251a1.14 1.14 0 0 0 1.138 1.138h2.645a1.14 1.14 0 0 0 1.138-1.138v-.251c3.699.893 6.652 3.783 7.636 7.468h-.482a1.14 1.14 0 0 0-1.138 1.138v2.645a1.14 1.14 0 0 0 1.138 1.138h2.645a1.14 1.14 0 0 0 1.138-1.138v-2.645a1.14 1.14 0 0 0-1.138-1.138h-.956c-.817-3.42-3.148-6.261-6.233-7.761h5.702c.112.321.293.614.538.859.44.454 1.026.684 1.633.684.384 0 .775-.091 1.145-.279a2.06 2.06 0 0 0 .921-.949c.454-.956.293-1.996-.426-2.729-.914-.866-2.429-.858-3.301.007zM16.06 20.997c-.084.168-.223.314-.391.398-.607.307-1.131.112-1.417-.188-.216-.209-.335-.496-.335-.803a1.16 1.16 0 0 1 .335-.81c.216-.216.503-.335.81-.335a1.14 1.14 0 0 1 .803.328c.363.377.433.9.195 1.41zm2.373 11.691l-2.61.035-.035-2.61h2.61l.035 2.576zm21.819 0l-2.611.035-.035-2.61h2.611l.035 2.576zM26.711 21.73l-.014-.88a.61.61 0 0 0 .007-.195v-.007c0-.021.014-.035.014-.056 0-.035-.014-.063-.021-.091l-.021-1.375h2.61l.021 1.375c-.007.035-.021.063-.021.098 0 .021.007.035.014.056v.007a.6.6 0 0 0 .014.251l.014.789-2.617.028zm15.223-.733c-.084.168-.223.314-.391.398-.607.307-1.131.112-1.417-.188-.216-.209-.335-.496-.335-.803a1.16 1.16 0 0 1 .335-.81c.216-.216.503-.335.81-.335a1.14 1.14 0 0 1 .803.328c.363.377.433.9.196 1.41z"/></g><defs ><path id="B" d="M39.17 10.982c.914 0 1.654-.74 1.654-1.654s-.74-1.654-1.654-1.654-1.654.74-1.654 1.654.74 1.654 1.654 1.654zm0-2.129c.265 0 .482.216.482.482s-.216.482-.482.482c-.272 0-.482-.209-.482-.482a.48.48 0 0 1 .482-.482z"/></defs></svg>