<svg xmlns="http://www.w3.org/2000/svg" width="80" height="80" fill="none" xmlns:v="https://vecta.io/nano"><g clip-path="url(#A)"><g fill="#92288d"><path d="M56.238 20.978v22.778h3.56v-22.91c0-3.19-2.585-5.775-5.775-5.775h-2.101v3.9h2.311c1.108 0 2.006.898 2.006 2.006h-.002zM36.47 55.249H20.906c-1.108 0-2.006-.898-2.006-2.006V20.978c0-1.108.898-2.006 2.006-2.006h2.235v-3.9h-2.366c-3.19 0-5.775 2.585-5.775 5.775V53.11c0 3.19 2.585 5.775 5.775 5.775H36.47V55.25z" fill-opacity=".94"/></g><path d="M47.843 25.111c-.124-.097-.279-.155-.448-.155h-5.349c-.632 0-1.145.513-1.145 1.145s.513 1.145 1.145 1.145h2.359l-6.171 6.171-2.065-2.065.017-.017-.733-.733c-.061-.061-.127-.115-.196-.161l-.046-.046-.011.011c-.513-.311-1.189-.246-1.631.196l-7.706 7.706c-.462.462-.462 1.214 0 1.676s1.214.462 1.676 0l6.924-6.924 2.065 2.065-.029.029.606.606c.083.083.175.153.269.213l.104.104.029-.029c.565.277 1.267.182 1.737-.288l6.598-6.598v1.95c0 .632.513 1.145 1.145 1.145s1.145-.513 1.145-1.145v-5.487a.6.6 0 0 0-.291-.513l.003-.002z" fill="#8ec640"/><g fill="#92288d"><path d="M47.878 11.474h-3.782C44.015 7.885 41.081 5 37.474 5s-6.541 2.885-6.622 6.474H27.07c-.716 0-1.296.58-1.296 1.296v6.267c0 .716.58 1.296 1.296 1.296h20.809c.716 0 1.296-.58 1.296-1.296V12.77c0-.716-.58-1.296-1.296-1.296zM37.474 8.067a3.56 3.56 0 0 1 0 7.12 3.56 3.56 0 0 1 0-7.12zm-8.245 35.945h-2.926c-.455 0-.824.369-.824.823v4.033c0 .455.369.823.824.823h2.926c.455 0 .823-.369.823-.823v-4.033c0-.455-.369-.823-.823-.823zm6.561-2.983h-2.926c-.455 0-.823.369-.823.823v7.016c0 .455.369.823.823.823h2.926c.455 0 .824-.369.824-.823v-7.016c0-.455-.369-.823-.824-.823zm6.872 3.267l.511-.355v-5.126c0-.455-.369-.823-.823-.823h-2.925c-.454 0-.823.369-.823.823v9.757a16.39 16.39 0 0 1 4.062-4.276h-.002zm7.071-2.927v-5.366c0-.455-.369-.823-.823-.823h-2.925c-.454 0-.823.369-.823.823v6.8a16.89 16.89 0 0 1 4.573-1.434h-.002zm17.581 26.415l-5.369-4.285c1.217-1.884 1.927-4.126 1.927-6.535 0-6.661-5.4-12.06-12.06-12.06s-12.06 5.4-12.06 12.06 5.4 12.06 12.06 12.06c2.372 0 4.581-.687 6.447-1.869l3.946 4.833s2.215 3.863 5.566.966c0 0 2.499-2.613-.454-5.168l-.002-.002zm-23.55-10.821a8.2 8.2 0 0 1 8.199-8.199 8.2 8.2 0 0 1 8.199 8.199 8.2 8.2 0 0 1-8.199 8.199 8.2 8.2 0 0 1-8.199-8.199z" fill-opacity=".94"/></g><path d="M56.452 53.521c-.672-.634-1.742-.572-2.388.087l-3.231 3.303-1.097-1.073c-.66-.646-1.731-.683-2.388-.035s-.666 1.739.005 2.392l1.137 1.113 1.622 1.587c.427.418 1.114.41 1.532-.017l4.856-4.965c.655-.669.635-1.748-.049-2.392z" fill="#8ec640"/></g><defs><clipPath id="A"><path fill="#fff" transform="translate(15 5)" d="M0 0h53.756v69.03H0z"/></clipPath></defs></svg>