<svg xmlns="http://www.w3.org/2000/svg" width="80" height="80" fill="none" xmlns:v="https://vecta.io/nano"><path d="M33.837 51.738c-.615-5.811-4.515-10.508-9.722-12.3a8.01 8.01 0 0 0 3.211-6.426c0-4.407-3.546-7.991-7.906-7.991s-7.906 3.585-7.906 7.991a8.01 8.01 0 0 0 3.211 6.426c-5.206 1.79-9.106 6.487-9.72 12.3-.035.332.071.662.29.91a1.15 1.15 0 0 0 .864.389h26.523a1.16 1.16 0 0 0 .864-.389 1.17 1.17 0 0 0 .29-.91zM13.839 33.012c0-3.111 2.504-5.644 5.583-5.644s5.583 2.531 5.583 5.644-2.504 5.644-5.583 5.644-5.583-2.531-5.583-5.644zM7.521 50.689c1.195-5.604 6.101-9.685 11.901-9.685s10.706 4.081 11.901 9.685H7.521zM59.145 29.89c-4.985 0-9.041 4.1-9.041 9.139s4.056 9.139 9.041 9.139 9.041-4.1 9.041-9.139-4.056-9.139-9.041-9.139zm0 15.931c-3.705 0-6.718-3.046-6.718-6.791s3.014-6.793 6.718-6.793 6.718 3.046 6.718 6.793-3.014 6.791-6.718 6.791zm17.11-10.172l-2.209-.86c-.331-1.19-.8-2.335-1.401-3.415l.961-2.188a1.18 1.18 0 0 0-.24-1.306l-3.195-3.23c-.34-.343-.854-.44-1.292-.244l-2.166.971c-1.068-.606-2.199-1.08-3.376-1.415l-.851-2.233c-.173-.453-.604-.753-1.084-.753h-4.519a1.16 1.16 0 0 0-1.084.753l-.851 2.233c-1.177.335-2.308.809-3.376 1.415l-2.166-.971a1.15 1.15 0 0 0-1.292.244l-3.195 3.23a1.18 1.18 0 0 0-.239 1.306l.961 2.188a15.61 15.61 0 0 0-1.401 3.413l-2.209.86c-.449.175-.745.61-.745 1.096v4.568c0 .486.296.922.745 1.096l2.209.86a15.62 15.62 0 0 0 1.401 3.415l-.961 2.188a1.18 1.18 0 0 0 .241 1.306l3.195 3.23c.34.343.854.44 1.292.244l2.166-.971a15.19 15.19 0 0 0 3.377 1.415l.851 2.233c.173.453.604.753 1.084.753h4.519a1.16 1.16 0 0 0 1.084-.753l.851-2.233a15.27 15.27 0 0 0 3.378-1.416l2.165.971a1.15 1.15 0 0 0 1.292-.242l3.195-3.23a1.18 1.18 0 0 0 .24-1.306l-.961-2.189a15.61 15.61 0 0 0 1.399-3.413l2.209-.86c.449-.175.745-.61.745-1.096v-4.568c0-.486-.296-.922-.745-1.096v.001zm-1.578 4.857l-2.022.787a1.17 1.17 0 0 0-.713.823 13.28 13.28 0 0 1-1.588 3.874 1.19 1.19 0 0 0-.073 1.092l.88 2.004-2.067 2.09-1.982-.889a1.15 1.15 0 0 0-1.08.073 13.04 13.04 0 0 1-3.832 1.607 1.16 1.16 0 0 0-.814.72l-.778 2.044h-2.924l-.778-2.044c-.138-.361-.443-.631-.814-.72a13 13 0 0 1-3.832-1.605 1.15 1.15 0 0 0-1.08-.073l-1.982.891-2.067-2.09.88-2.003c.155-.354.128-.763-.073-1.092a13.32 13.32 0 0 1-1.59-3.874 1.17 1.17 0 0 0-.713-.823l-2.022-.787v-2.955l2.022-.787c.357-.139.624-.448.713-.823a13.28 13.28 0 0 1 1.588-3.874 1.19 1.19 0 0 0 .073-1.092l-.88-2.003 2.067-2.09 1.983.889a1.15 1.15 0 0 0 1.08-.073 13 13 0 0 1 3.832-1.605 1.16 1.16 0 0 0 .814-.72l.778-2.044h2.924l.778 2.044c.138.361.443.631.814.72a13 13 0 0 1 3.832 1.605 1.15 1.15 0 0 0 1.08.073l1.983-.891 2.067 2.09-.88 2.003c-.155.354-.128.763.073 1.092a13.34 13.34 0 0 1 1.59 3.874c.088.377.356.685.713.823l2.022.787v2.955l-.003-.003z" fill-opacity=".94" fill="#92288d"/><path d="M42.761 24.653H31.529l.147.116c.505.399.595 1.137.2 1.648-.229.296-.57.452-.916.452-.25 0-.502-.081-.714-.249l-2.806-2.214a1.18 1.18 0 0 1-.447-.924c0-.361.164-.703.447-.924l2.806-2.214c.505-.399 1.235-.308 1.63.203s.305 1.249-.2 1.648l-.147.116h11.233c.642 0 1.161.525 1.161 1.174s-.52 1.174-1.161 1.174v-.003z" fill="#8ec640"/><path d="M24.09 15.389c0-.649.52-1.174 1.161-1.174h17.04l-.147-.116c-.505-.399-.595-1.137-.2-1.648s1.125-.602 1.63-.203l2.806 2.214a1.18 1.18 0 0 1 0 1.852l-2.806 2.214a1.15 1.15 0 0 1-.714.248c-.346 0-.687-.156-.916-.452-.395-.511-.305-1.249.2-1.648l.147-.116H25.252c-.642 0-1.161-.525-1.161-1.174v.002z" fill="#92288d" fill-opacity=".94"/><path d="M39.241 59.188l.147-.116H28.155c-.642 0-1.161-.525-1.161-1.174s.52-1.174 1.161-1.174h11.233l-.147-.116c-.505-.399-.595-1.137-.2-1.648s1.125-.602 1.63-.203l2.806 2.214a1.18 1.18 0 0 1 .447.924c0 .361-.165.703-.447.925l-2.806 2.214a1.15 1.15 0 0 1-.714.249c-.345 0-.687-.155-.916-.452-.395-.511-.305-1.249.2-1.648v.003z" fill="#8ec640"/><path d="M46.826 65.988c0 .649-.52 1.174-1.161 1.174H28.626l.147.116c.505.399.595 1.137.2 1.648-.229.296-.57.452-.916.452-.25 0-.502-.081-.714-.249l-2.806-2.214a1.18 1.18 0 0 1-.447-.924c0-.361.164-.703.447-.924l2.806-2.214c.505-.399 1.235-.308 1.63.203s.305 1.249-.2 1.648l-.147.116h17.039c.642 0 1.161.525 1.161 1.174v-.003z" fill="#92288d" fill-opacity=".94"/></svg>