<svg xmlns="http://www.w3.org/2000/svg" width="40" height="30" fill="none" xmlns:v="https://vecta.io/nano"><path d="M36.37 16.25v-5.554c.663.048 1.29.334 1.763.808a2.79 2.79 0 0 1 0 3.938c-.473.475-1.1.76-1.763.808zM32.076.838h0l.005-.002a2.77 2.77 0 0 1 2.597.222 2.78 2.78 0 0 1 .893.994 2.79 2.79 0 0 1 .327 1.298v20.315a2.79 2.79 0 0 1-.343 1.259 2.78 2.78 0 0 1-.879.966c-.461.311-1.001.482-1.556.491-.357 0-.711-.068-1.044-.201l-14.479-5.802-.274-.11v.296 6.04a2.79 2.79 0 0 1-.806 1.961c-.516.521-1.216.817-1.948.823H13.07c-.526-.004-1.041-.156-1.485-.44s-.8-.687-1.026-1.165l-3.572-7.592-.054-.115h-.127c-.725 0-1.421-.284-1.94-.792a2.79 2.79 0 0 1-.837-1.924v-.308-.2h-.2-2.777v-6.762H3.83h.2v-.2-.239a2.79 2.79 0 0 1 .814-1.969c.521-.522 1.227-.815 1.963-.815h9.407a3.1 3.1 0 0 0 1.17-.229L32.076.838zm-17.33 8.815v-.2h-.2-7.74-.2v.2 7.712.2h.2 7.74.2v-.2-7.712zm-.2 17.151h.2v-.2-6.327-.2h-.2-4.43-.313l.131.284 2.929 6.327.054.116h.128 1.5zm3.767-8.903l.008.004.009.003 14.718 5.873.274.109v-.295V3.349v-.295l-.274.109-14.717 5.873c-.275.108-.559.193-.848.253l-.16.033v.163 7.879.148l.141.043a5.24 5.24 0 0 1 .849.345z" fill="#fff" stroke="#8ec640" stroke-width=".4"/></svg>