<svg xmlns="http://www.w3.org/2000/svg" width="52" height="52" fill="#fff" xmlns:v="https://vecta.io/nano"><path d="M7.636 33.069a.69.69 0 0 0-.688.689.69.69 0 0 0 .688.688h6.013a.69.69 0 0 0 .688-.688.69.69 0 0 0-.688-.689H7.636zm41.592 5.038l-2.899-2.899V11.912a1.15 1.15 0 0 0-1.148-1.148h-6.627a14.51 14.51 0 0 0-9.921-3.95c-3.833 0-7.322 1.502-9.909 3.948l-6.405-.001a.69.69 0 0 0-.689.688.69.69 0 0 0 .688.689h5.125a14.58 14.58 0 0 0-1.053 1.469H4.378v-1.469h4.73a.69.69 0 0 0 .688-.689.69.69 0 0 0-.688-.688h-4.96A1.15 1.15 0 0 0 3 11.909v25.702a1.15 1.15 0 0 0 1.147 1.148h9.329a.69.69 0 0 0 .688-.688.69.69 0 0 0-.688-.689h-9.1l.001-22.397H15.63a14.3 14.3 0 0 0-1.032 2.891H7.682a.69.69 0 0 0-.688.689v5.508a.69.69 0 0 0 .688.688h6.951c.162.646.368 1.274.613 1.882h-7.61a.69.69 0 0 0-.688.689.69.69 0 0 0 .688.688h8.253a14.47 14.47 0 0 0 1.164 1.836H7.636a.69.69 0 0 0-.688.688.69.69 0 0 0 .688.689h10.583c2.629 2.742 6.326 4.451 10.415 4.451a14.39 14.39 0 0 0 7.121-1.876l1.377 1.377c.257.257.595.386.933.386.302 0 .603-.103.847-.308l2.121 2.121-24.343-.002a.69.69 0 0 0-.689.688.69.69 0 0 0 .689.689h3.004l-.604 2.202H17.9a3.11 3.11 0 0 0-3.104 3.104v.339a.69.69 0 0 0 .688.688l18.36.003h0a.69.69 0 0 0 .688-.689v-.339a3.11 3.11 0 0 0-3.104-3.104h-1.19l-.604-2.204 12.776.001 3.081 3.082c.499.499 1.162.774 1.868.774s1.369-.275 1.868-.774c1.03-1.03 1.03-2.706 0-3.736zM33.12 43.718l-16.911-.002a1.73 1.73 0 0 1 1.691-1.377l13.529.003a1.73 1.73 0 0 1 1.691 1.377zm-4.309-2.754l-8.292-.002.604-2.203h7.085l.604 2.203zM44.952 13.61h-4.071a14.49 14.49 0 0 0-1.049-1.469h5.12v1.468zM8.37 23.384v-4.131h5.968a14.45 14.45 0 0 0-.139 1.996 14.47 14.47 0 0 0 .158 2.135H8.37zm7.206-2.135c0-7.2 5.858-13.058 13.058-13.058a12.98 12.98 0 0 1 12.902 11.033.69.69 0 0 0 .786.574.69.69 0 0 0 .574-.786 14.35 14.35 0 0 0-1.256-4.025h3.311v18.844l-2.303-2.304a1.31 1.31 0 0 0-.078-1.78l-1.376-1.376a14.36 14.36 0 0 0 1.834-6.023.69.69 0 0 0-.635-.738.69.69 0 0 0-.738.635c-.509 6.764-6.229 12.063-13.02 12.063-7.2 0-13.058-5.858-13.058-13.058zm21.37 11.803a14.51 14.51 0 0 0 1.525-1.239 14.52 14.52 0 0 0 1.966-2.251l1.118 1.118-3.491 3.491-1.119-1.119zm11.308 7.817c-.239.239-.556.37-.894.37a1.26 1.26 0 0 1-.894-.37l-6.575-6.575 1.788-1.788 6.575 6.575c.493.493.493 1.295 0 1.788zM28.634 9.564c-6.443 0-11.686 5.242-11.686 11.685 0 3.722 1.798 7.254 4.809 9.449a.69.69 0 0 0 .962-.151.69.69 0 0 0-.151-.962 10.35 10.35 0 0 1-4.243-8.336c0-5.684 4.624-10.308 10.308-10.308s10.309 4.624 10.309 10.308-4.624 10.309-10.309 10.309a10.29 10.29 0 0 1-3.413-.578.69.69 0 0 0-.878.422.69.69 0 0 0 .422.878 11.66 11.66 0 0 0 3.869.656c6.443 0 11.685-5.242 11.685-11.686A11.7 11.7 0 0 0 28.634 9.564zm.327 9.907a.69.69 0 0 0 .688-.689.69.69 0 0 0-.688-.688h-2.079a.69.69 0 0 0-.689.688v4.934a.69.69 0 0 0 .689.689h2.079a.69.69 0 0 0 .688-.689.69.69 0 0 0-.688-.689H27.57v-1.09h1.237a.69.69 0 0 0 .689-.688.69.69 0 0 0-.689-.689H27.57v-1.09h1.391zm-6.597 3.58c-.477 0-.934-.191-1.225-.512a.69.69 0 0 0-.973-.048.69.69 0 0 0-.048.973c.555.613 1.374.964 2.245.964 1.081 0 1.99-.693 2.16-1.647.129-.721-.195-1.661-1.49-2.138l-1.358-.546c-.073-.04-.104-.11-.094-.211.014-.139.118-.314.366-.389.666-.2 1.29.289 1.31.305a.69.69 0 0 0 .966-.087.69.69 0 0 0-.084-.97c-.048-.04-1.195-.986-2.589-.566-.738.222-1.263.837-1.338 1.566a1.56 1.56 0 0 0 .805 1.562c.284.164.934.41 1.54.629.158.058.669.274.611.604-.045.252-.358.512-.805.512zm15.174-1.801c0-1.753-1.426-3.178-3.178-3.178s-3.178 1.426-3.178 3.178 1.426 3.178 3.178 3.178 3.178-1.426 3.178-3.178zm-4.979 0c0-.993.808-1.801 1.801-1.801s1.801.808 1.801 1.801-.808 1.801-1.801 1.801-1.801-.808-1.801-1.801z"/></svg>