<svg xmlns="http://www.w3.org/2000/svg" width="52" height="52" fill="none" xmlns:v="https://vecta.io/nano"><path d="M38.636 17.949h5.667a2.95 2.95 0 0 0 2.946-2.946V7.481a2.95 2.95 0 0 0-2.946-2.946H37.27C36.659 3.019 35.185 2 33.519 2H15.017a4.05 4.05 0 0 0-4.043 4.043v14.819H6.946A2.95 2.95 0 0 0 4 23.808v7.522a2.95 2.95 0 0 0 2.946 2.946h4.027v11.681A4.05 4.05 0 0 0 15.017 50h18.503a4.05 4.05 0 0 0 4.043-4.043V44.64h2.104a.68.68 0 0 0 .663-.536l.293-1.374.987-.408 1.18.766c.268.174.622.137.848-.09l1.967-1.97c.226-.226.263-.58.089-.848l-.766-1.18.408-.985 1.377-.293a.68.68 0 0 0 .536-.663v-2.782a.68.68 0 0 0-.536-.663l-1.377-.293-.408-.987.766-1.18a.68.68 0 0 0-.089-.848l-1.967-1.967a.68.68 0 0 0-.848-.089l-1.18.766-.987-.408-.293-1.377a.68.68 0 0 0-.663-.536h-2.104v-7.616l1.073-1.132zm7.258-10.468v7.522c0 .877-.714 1.591-1.591 1.591h-5.958c-.186 0-.364.076-.492.211l-1.319 1.392v-.926a.68.68 0 0 0-.677-.677h-.963c-.877 0-1.591-.714-1.591-1.591V7.481c0-.877.714-1.591 1.591-1.591h9.409c.877 0 1.591.714 1.591 1.591zM19.641 3.355h9.253v1.248c0 .183-.155.338-.338.338h-8.578c-.183 0-.338-.155-.338-.338V3.355zM5.355 31.33v-7.522c0-.877.714-1.591 1.591-1.591h5.994a2.95 2.95 0 0 0 2.88 2.326h2.126v6.787c0 .877-.714 1.591-1.591 1.591h-.963c-.374 0-.677.303-.677.677v.926l-1.319-1.392c-.128-.135-.306-.211-.492-.211H6.946c-.877 0-1.591-.714-1.591-1.591zm10.465-8.142a1.59 1.59 0 0 1-1.591-1.588v-7.525c0-.877.714-1.591 1.591-1.591h9.409c.877 0 1.591.714 1.591 1.591V21.6a1.59 1.59 0 0 1-1.591 1.588h-.963a.68.68 0 0 0-.677.677v.926L22.27 23.4c-.128-.135-.306-.211-.492-.211H15.82zm-3.207 11.088l2.288 2.414c.13.138.309.212.492.212.084 0 .169-.016.251-.048a.68.68 0 0 0 .427-.629v-1.948h.285a2.95 2.95 0 0 0 2.946-2.946v-6.787h2.186l2.288 2.414c.13.138.309.212.492.212.084 0 .169-.016.251-.048a.68.68 0 0 0 .427-.629v-1.948h.285a2.95 2.95 0 0 0 2.946-2.943v-7.525a2.95 2.95 0 0 0-2.946-2.946H15.82a2.95 2.95 0 0 0-2.946 2.946v6.787h-.546V6.043a2.69 2.69 0 0 1 2.689-2.688h3.27v1.248c0 .933.759 1.692 1.692 1.692h8.578c.933 0 1.692-.759 1.692-1.692V3.355h3.27c.909 0 1.732.458 2.223 1.18h-.848a2.95 2.95 0 0 0-2.946 2.946v7.522a2.95 2.95 0 0 0 2.946 2.946h.285v1.948c0 .277.169.526.427.629a.68.68 0 0 0 .602-.051v22.789h-23.88v-8.987h.285zm24.95-1.398c.232-.059.471-.089.713-.089 1.588 0 2.88 1.292 2.88 2.881s-1.292 2.88-2.88 2.88c-.242 0-.481-.03-.713-.089v-5.582zm-4.043 15.767H15.017c-1.482 0-2.689-1.206-2.689-2.688v-1.339h23.88v1.339a2.69 2.69 0 0 1-2.688 2.688zm5.599-20.593l.253 1.189c.047.218.197.4.404.485l1.646.68a.68.68 0 0 0 .628-.058l1.018-.661 1.191 1.191-.661 1.018a.68.68 0 0 0-.058.628l.68 1.646a.68.68 0 0 0 .485.404l1.189.253v1.685l-1.189.253a.68.68 0 0 0-.485.403l-.68 1.643c-.085.206-.064.441.058.628l.662 1.019-1.192 1.193-1.018-.661a.68.68 0 0 0-.628-.058l-1.646.68a.68.68 0 0 0-.404.485l-.253 1.187h-1.556v-3.44a4.24 4.24 0 0 0 4.949-4.175 4.24 4.24 0 0 0-4.235-4.236 4.25 4.25 0 0 0-.713.06v-3.443h1.556 0zm-25.284 3.555c.141 0 .281-.044.398-.129.204-.148.308-.396.272-.645l-.301-2.078 1.465-1.505c.175-.18.237-.442.159-.682s-.281-.416-.529-.458l-2.069-.357-.98-1.859c-.117-.222-.348-.362-.599-.362a.68.68 0 0 0-.599.362l-.98 1.859-2.069.357c-.248.043-.451.219-.529.458s-.016.502.159.682l1.465 1.505-.301 2.078a.68.68 0 0 0 .272.645c.204.148.472.171.698.06l1.884-.928 1.884.928c.095.047.197.07.299.07zm-1.019-2.989l.164 1.136-1.03-.507a.68.68 0 0 0-.299-.07c-.102 0-.205.023-.299.07l-1.03.507.164-1.136c.03-.208-.038-.419-.185-.569l-.801-.823 1.131-.196c.207-.036.386-.166.484-.351l.536-1.017.536 1.017c.098.186.277.316.484.351l1.131.196-.801.823a.68.68 0 0 0-.185.569zm26.472-13.801a.68.68 0 0 0 .622 0c3.469-1.793 3.858-3.722 3.781-4.711-.085-1.091-.825-2.052-1.843-2.391-.827-.276-1.655-.093-2.249.488-.593-.581-1.422-.764-2.249-.488-1.018.34-1.758 1.301-1.843 2.391-.077.99.312 2.918 3.781 4.711zm-2.43-4.607c.05-.641.498-1.07.921-1.211.083-.028.195-.054.32-.054.191 0 .411.062.601.277l.389.444a.68.68 0 0 0 .51.231c.195 0 .381-.084.509-.231l.389-.443c.315-.358.713-.294.922-.224.423.141.871.57.921 1.211.082 1.056-.913 2.226-2.741 3.237-1.829-1.011-2.823-2.18-2.741-3.237zM20.895 38.218a.68.68 0 0 1 .678-.678.68.68 0 0 1 .678.678.68.68 0 0 1-.678.677.68.68 0 0 1-.678-.677zm2.694 0a.68.68 0 0 1 .678-.678.68.68 0 0 1 .678.678.68.68 0 0 1-.678.677.68.68 0 0 1-.678-.677zm2.697 0a.68.68 0 0 1 .678-.678.68.68 0 0 1 .678.678.68.68 0 0 1-.678.677.68.68 0 0 1-.678-.677zM23.73 21.15l.955-3.564a.94.94 0 0 0-.162-.815c-.18-.236-.453-.372-.75-.372h-2.005v-1.63c0-.52-.423-.944-.944-.944h-.115c-.346 0-.654.18-.826.486l-1.067 1.922a.96.96 0 0 0-.294-.046h-1.224c-.532 0-.965.433-.965.965v3.566c0 .532.433.965.965.965h1.224a.96.96 0 0 0 .575-.192l.461.266a.68.68 0 0 0 .338.091h2.922a.95.95 0 0 0 .912-.699zm-5.597-.82h-.445v-2.787h.445v2.787zm1.945.165l-.59-.34v-2.337l.925-1.667v.926a.68.68 0 0 0 .677.677h2.148l-.734 2.741h-2.425zm6.745 26.137a.68.68 0 0 1-.677.677H22.39a.68.68 0 0 1-.677-.677.68.68 0 0 1 .677-.677h3.756a.68.68 0 0 1 .677.677z" fill="#fff"/></svg>