<svg xmlns="http://www.w3.org/2000/svg" width="52" height="52" fill="none" xmlns:v="https://vecta.io/nano"><style><![CDATA[.B{stroke:#fff}.C{stroke-width:1.6}.D{stroke-miterlimit:10}.E{stroke-linejoin:round}.F{stroke-linecap:round}]]></style><mask id="A" maskUnits="userSpaceOnUse" x="2" y="2" width="48" height="48"><path d="M2 2H50V50H2V2Z" fill="#fff"/></mask><g mask="url(#A)" class="B C D E"><path d="M2.938 16.562h42.705" class="F"/><path d="M10.767 12.572c1.228 0 2.23-.999 2.23-2.226s-1.002-2.226-2.23-2.226a2.23 2.23 0 0 0-2.227 2.226 2.23 2.23 0 0 0 2.227 2.226zm19.354-4.451h8.387c1.225 0 2.227 1.001 2.227 2.226s-1.002 2.226-2.227 2.226h-8.387c-1.225 0-2.227-1.001-2.227-2.226s1.002-2.226 2.227-2.226zm-11.133 4.451a2.23 2.23 0 0 0 2.23-2.226c0-1.227-1.002-2.226-2.23-2.226a2.23 2.23 0 0 0-2.227 2.226 2.23 2.23 0 0 0 2.227 2.226z"/><path d="M17.226 23.773l-1.876 7.851m6.197-.709l2.655-2.98c.117-.13.117-.342 0-.473l-2.655-2.98M11.03 30.915l-2.655-2.98c-.117-.13-.117-.342 0-.473l2.655-2.98" class="F"/><path d="M39.923 27.916a9.07 9.07 0 0 1 2.849 1.174l.768-.765c.454-.457 1.201-.457 1.658 0l1.209 1.209c.457.457.457 1.203 0 1.657l-.765.768c.539.855.938 1.806 1.169 2.821h1.076a1.18 1.18 0 0 1 1.175 1.171v1.713a1.18 1.18 0 0 1-1.175 1.171h-1.082c-.231 1.009-.63 1.955-1.164 2.805l.765.765c.457.457.457 1.203 0 1.657l-1.209 1.211c-.457.457-1.204.457-1.658 0l-.768-.765c-.853.537-1.802.935-2.817 1.166v1.089a1.18 1.18 0 0 1-1.172 1.174h-1.714a1.18 1.18 0 0 1-1.172-1.174v-1.092a9.08 9.08 0 0 1-2.812-1.163l-.765.765c-.457.457-1.204.457-1.658 0l-1.212-1.211a1.18 1.18 0 0 1 0-1.657l.768-.765c-.537-.85-.935-1.796-1.166-2.805h-1.087c-.646 0-1.172-.529-1.172-1.171v-1.713c0-.643.526-1.171 1.172-1.171h1.084a9.07 9.07 0 0 1 1.151-2.791l-.771-.773c-.457-.454-.457-1.2 0-1.657l1.209-1.209c.457-.457 1.204-.457 1.658 0l.763.76a9.12 9.12 0 0 1 2.806-1.177v-1.081c0-.645.526-1.174 1.172-1.174h1.711a1.18 1.18 0 0 1 1.175 1.174v1.065z"/><path d="M37.928 31.977a4.83 4.83 0 1 1 0 9.66 4.83 4.83 0 0 1-4.834-4.829c0-2.669 2.163-4.831 4.834-4.831z"/><path d="M11.978 38.835H6.429c-1.918 0-3.492-1.878-3.492-4.17V8.232c0-2.295 1.571-4.17 3.492-4.17h4.045 31.677c1.921 0 3.492 1.878 3.492 4.17v20.537M27.965 38.835h-7.608m-4.18 0h.018" class="F"/></g></svg>