<svg xmlns="http://www.w3.org/2000/svg" width="200" height="75" fill="none" xmlns:v="https://vecta.io/nano"><g clip-path="url(#A)" fill="#fff"><path d="M94.533 26.723l3.466-7.691 2.874 3.637-6.34 4.054zm4.323-8.675l10.817 14.709 5.131-6.518 4.249-5.593 1.408-13.594-21.605 10.996z"/><path d="M121.027 1.576l-.273 2.641L132.381.983 120.46 7.051l-1.407 13.594L134.736 0l-13.709 1.576z"/><path d="M103.972 3.537L83.285 5.915l5.816 4.848 2.028 1.691 29.625-8.238.274-2.641-17.056 1.962zM92.433 14.112l1.908 11.291 2.797-8.836 23.433-10.58.1-.973-28.238 9.097z"/><path d="M120.672 5.015l-.101.973 7.271-3.283-7.17 2.311zm-91.85 65.609c0 1.279-.431 2.314-1.292 3.104s-1.946 1.185-3.254 1.186a4.9 4.9 0 0 1-2.892-.907c-.861-.605-1.325-1.412-1.392-2.422l-.155-3.533h-8.63l-2.144 3.332c-.495.739-1.047 1.439-1.653 2.094-.5.522-.991.892-1.473 1.111a3.71 3.71 0 0 1-1.55.328c-1.274 0-2.324-.395-3.15-1.186S-.001 71.903 0 70.624c0-.369.112-.806.336-1.312a7.33 7.33 0 0 1 .543-1.06l19.266-28.715a6.61 6.61 0 0 1 2.247-2.094 5.88 5.88 0 0 1 2.97-.782c.999 0 1.825.345 2.48 1.034s.982 1.573.982 2.649v30.28zm-13.27-10.85h4.146v-6.147l-4.146 6.147zm64.571 0h4.146v-6.148l-4.146 6.148zm13.309 10.849c0 1.279-.431 2.314-1.292 3.104s-1.946 1.185-3.254 1.186a4.9 4.9 0 0 1-2.892-.907c-.861-.605-1.325-1.412-1.392-2.422l-.155-3.533h-8.628l-2.144 3.332a17.19 17.19 0 0 1-1.653 2.094c-.5.522-.991.892-1.473 1.111a3.72 3.72 0 0 1-1.549.328c-1.275 0-2.327-.395-3.155-1.186s-1.241-1.826-1.239-3.105c0-.369.112-.806.335-1.312.152-.367.333-.721.543-1.06l19.269-28.715A6.61 6.61 0 0 1 87 37.444a5.88 5.88 0 0 1 2.97-.782c.998 0 1.825.345 2.48 1.034s.982 1.573.982 2.649v30.28zm27.699-10.495v10.296a4.41 4.41 0 0 1-.347 1.721 4.49 4.49 0 0 1-.997 1.459 4.58 4.58 0 0 1-1.493.973 4.67 4.67 0 0 1-1.76.338 4 4 0 0 1-1.73-.378 4.56 4.56 0 0 1-1.392-1.009 4.31 4.31 0 0 1-.904-1.464 4.82 4.82 0 0 1-.31-1.691v-29.07c0-1.279.405-2.337 1.214-3.175s1.851-1.259 3.125-1.262h7.902a11.86 11.86 0 0 1 4.674.907c1.392.58 2.648 1.43 3.694 2.499a11.29 11.29 0 0 1 2.401 3.709 12.17 12.17 0 0 1 .853 4.593c0 2.491-.491 4.568-1.473 6.233s-2.402 3.036-4.263 4.114l4.701 9.791a4.16 4.16 0 0 1 .463 1.917 3.98 3.98 0 0 1-.335 1.59 4.31 4.31 0 0 1-.956 1.388 4.6 4.6 0 0 1-1.472.959c-.581.237-1.204.358-1.834.353a4.45 4.45 0 0 1-2.272-.63 4.43 4.43 0 0 1-1.705-1.792l-5.784-12.368zm0-14.535V51.8h3.305c.517 0 .947-.117 1.292-.353a2.93 2.93 0 0 0 .826-.833c.206-.318.354-.667.439-1.034.081-.331.125-.669.13-1.01-.006-.306-.049-.611-.13-.907a3.03 3.03 0 0 0-.439-.959 2.8 2.8 0 0 0-.826-.782c-.345-.219-.775-.328-1.292-.328l-3.305-.001zm-56.43 2.877a19.44 19.44 0 0 0-4.132-6.005 19.66 19.66 0 0 0-6.147-4.088 18.54 18.54 0 0 0-2.156-.769 19.44 19.44 0 0 0-5.408-.746H38.8c-1.412 0-2.592.454-3.538 1.361s-1.42 2.068-1.42 3.482V70.12c-.001.601.131 1.195.387 1.741a4.98 4.98 0 0 0 2.532 2.473 4.34 4.34 0 0 0 1.782.378h8.316c.859.001 1.716-.053 2.568-.161a18.6 18.6 0 0 0 4.999-1.353c4.635-1.947 8.318-5.574 10.276-10.119a18 18 0 0 0 1.524-7.343 17.72 17.72 0 0 0-1.524-7.267zm-8.185 11.405a9.49 9.49 0 0 1-2.169 3.233 9.74 9.74 0 0 1-3.306 2.12c-.302.12-.61.223-.923.315a11.7 11.7 0 0 1-3.261.443h-4.083V45.593h4.342c1.516 0 2.902.253 4.158.758.105.042.207.091.31.132a9.48 9.48 0 0 1 2.918 1.962 9.12 9.12 0 0 1 2.066 3.204c.493 1.308.738 2.694.723 4.088 0 1.517-.258 2.896-.775 4.138zm49.54-21.979c-.805-.773-1.789-1.183-2.952-1.231h-.232c-.584-.01-1.164.095-1.705.307s-1.035.528-1.45.929a4.03 4.03 0 0 0-1.309 3.054v29.669c0 1.21.436 2.228 1.309 3.054.415.401.908.717 1.45.929a4.47 4.47 0 0 0 1.705.306h.232c1.165-.047 2.149-.458 2.952-1.231.855-.829 1.283-1.849 1.284-3.058V40.95a4.07 4.07 0 0 0-1.284-3.054zm52.263 22.131c1.273 0 2.332-.421 3.177-1.262s1.266-1.884 1.264-3.128c0-1.21-.421-2.236-1.264-3.079s-1.903-1.263-3.177-1.258h-8.78v-5.706h8.78c1.273 0 2.332-.429 3.177-1.286a4.31 4.31 0 0 0 .951-1.427 4.21 4.21 0 0 0 .313-1.676c0-1.21-.421-2.236-1.264-3.078s-1.903-1.263-3.177-1.262h-13.27a4.36 4.36 0 0 0-3.155 1.262 4.16 4.16 0 0 0-1.292 3.129v29.068c-.01.576.1 1.147.322 1.681a4.27 4.27 0 0 0 .97 1.423 4.26 4.26 0 0 0 1.894 1.121 4.67 4.67 0 0 0 1.256.166h13.27c1.274 0 2.332-.421 3.177-1.262a4.17 4.17 0 0 0 1.265-3.078 4.23 4.23 0 0 0-.311-1.677 4.31 4.31 0 0 0-.949-1.429c-.308-.316-.663-.582-1.055-.791a4.47 4.47 0 0 0-2.122-.495h-8.78V60.03h8.78zm40.158-11.557l-.158-.346a19.38 19.38 0 0 0-3.975-5.66 19.65 19.65 0 0 0-6.145-4.088 19.03 19.03 0 0 0-7.568-1.514h-8.057c-1.412 0-2.592.454-3.538 1.361s-1.421 2.069-1.424 3.484V70.12c-.001.601.132 1.195.388 1.741.506 1.099 1.406 1.979 2.531 2.473a4.35 4.35 0 0 0 1.782.378h8.315a19.03 19.03 0 0 0 7.568-1.514c4.636-1.946 8.321-5.573 10.281-10.119 1.018-2.319 1.536-4.819 1.522-7.343.012-2.499-.506-4.974-1.522-7.267zm-8.187 11.405a9.49 9.49 0 0 1-2.169 3.232 9.75 9.75 0 0 1-3.306 2.121 11.25 11.25 0 0 1-4.184.758h-4.083V45.593h4.339c1.514 0 2.9.253 4.157.758 1.211.475 2.31 1.188 3.229 2.094.91.915 1.613 2.007 2.065 3.204.038.096.071.193.105.29a11.37 11.37 0 0 1 .619 3.798c.002 1.517-.255 2.896-.772 4.138z"/></g><defs><clipPath id="A"><path fill="#fff" d="M0 0h200v74.914H0z"/></clipPath></defs></svg>