<svg width="555" height="362" viewBox="0 0 555 362" fill="none" xmlns="http://www.w3.org/2000/svg">
<path d="M121.2 294.6L158.5 209.8L189.5 249.9L121.2 294.6Z" fill="#1B5A96"/>
<path d="M167.8 199L284.3 361.1L339.6 289.3L385.4 227.6L400.6 77.8L167.8 199Z" fill="#1B5A96"/>
<path d="M406.7 17.4L403.7 46.5L529 10.9L400.6 77.8L385.4 227.6L554.4 0L406.7 17.4Z" fill="#FB9100"/>
<path d="M222.9 39L0 65.2L62.6 118.7L84.5 137.3L403.7 46.5L406.7 17.4L222.9 39Z" fill="#1B5A96"/>
<path d="M98.6 155.6L119.1 280L149.3 182.6L401.8 66L402.9 55.3L98.6 155.6Z" fill="#1B5A96"/>
<path d="M402.9 55.3L401.8 66L480.1 29.9L402.9 55.3Z" fill="#FB9100"/>
</svg>
