<svg width="74" height="72" viewBox="0 0 74 72" fill="none" xmlns="http://www.w3.org/2000/svg">
<path d="M55.1265 48.5663C55.1265 47.6427 55.1265 46.8177 55.1265 45.9803C55.1265 45.0322 55.1265 44.0717 55.1265 43.1235C55.1142 42.1507 55.5462 41.4611 56.4226 41.0794C57.299 40.71 58.0766 40.9562 58.7308 41.5842C60.0516 42.8649 61.3477 44.1579 62.6684 45.4508C65.8531 48.5786 69.05 51.7064 72.247 54.8341C73.2345 55.7946 73.2839 57.0506 72.2964 58.0111C67.7663 62.4688 63.2362 66.9142 58.6938 71.3595C58.0272 72.0122 57.2249 72.1722 56.3732 71.8151C55.5462 71.458 55.1265 70.7931 55.1265 69.8818C55.1265 68.2687 55.1018 66.6679 55.1265 65.0547C55.1265 64.4883 54.9537 64.3405 54.3982 64.3405C45.1282 64.3528 35.8582 64.3405 26.5882 64.3528C21.4162 64.3652 16.6763 62.986 12.6153 59.7843C5.9621 54.5386 2.98731 47.6427 3.8637 39.1953C4.23401 35.612 5.53008 32.3487 7.55442 29.3688C8.13457 28.5191 8.99862 28.1866 9.91204 28.4206C10.7144 28.6299 11.418 29.3688 11.4056 30.243C11.4056 30.7849 11.1834 31.4006 10.8748 31.8685C8.89987 34.9224 7.85067 38.2472 7.85067 41.8798C7.85067 52.0758 16.0098 60.1784 26.292 60.203C36.3766 60.2277 46.4737 60.203 56.5584 60.2153C57.0521 60.2153 57.5829 60.2277 58.0272 60.4001C58.9407 60.7448 59.2739 61.5206 59.2739 62.4688C59.2739 63.2323 59.2739 63.9834 59.2739 64.7469C59.3357 64.7715 59.4097 64.8085 59.4714 64.8331C62.187 61.9886 64.9026 59.1317 67.4454 56.4719C64.915 53.8244 62.187 50.9675 59.4591 48.0984C59.3974 48.123 59.3357 48.1599 59.2739 48.1846C59.2739 48.8988 59.2616 49.6007 59.2739 50.3149C59.311 51.8418 58.4963 52.7161 56.978 52.7161C46.6341 52.7161 36.3026 52.7654 25.9587 52.6915C21.984 52.6669 18.9352 50.7705 16.8368 47.4088C16.1332 46.2882 16.4294 45.0075 17.4663 44.3918C18.4908 43.7885 19.6881 44.1209 20.3917 45.2415C21.7989 47.495 23.8232 48.5663 26.4771 48.5663C35.7224 48.5663 44.9678 48.5663 54.2131 48.5663C54.4846 48.5663 54.7439 48.5663 55.1018 48.5663H55.1265Z" fill="white"/>
<path d="M18.8733 7.64692C19.5522 7.64692 20.1324 7.64692 20.7248 7.64692C29.6122 7.64692 38.4872 7.64692 47.3746 7.64692C53.7439 7.64692 59.2368 9.78955 63.7668 14.2842C71.2717 21.7095 72.4567 33.5802 66.6182 42.3847C65.8776 43.5053 64.6679 43.7885 63.6187 43.1113C62.6312 42.4709 62.4091 41.2272 63.125 40.119C65.3221 36.7203 66.3096 33.0138 66.1121 28.9625C65.7048 21.1184 59.8293 14.0625 52.1392 12.3509C50.6703 12.0184 49.1274 11.8337 47.6215 11.8337C37.438 11.7844 27.2669 11.8091 17.0835 11.8091C15.5529 11.8091 14.7259 10.9963 14.7135 9.46939C14.7135 8.74286 14.7135 8.02865 14.7135 7.08047C11.7634 9.97427 8.94909 12.7326 6.2335 15.3924C8.98612 18.2616 11.7017 21.1061 14.5654 24.0861C14.6518 23.7044 14.7012 23.5689 14.7135 23.4335C14.7135 22.8178 14.7135 22.2144 14.7135 21.5987C14.7135 20.121 15.5529 19.296 17.0465 19.296C22.5023 19.296 27.9458 19.296 33.4017 19.296C38.0799 19.296 42.7581 19.296 47.4363 19.296C47.8807 19.296 48.3497 19.3452 48.7571 19.5176C49.5471 19.8501 50.0161 20.749 49.9297 21.5741C49.8433 22.436 49.1768 23.1872 48.3004 23.3719C47.9547 23.4458 47.5844 23.4581 47.2141 23.4581C38.0552 23.4581 28.9086 23.4581 19.7497 23.4581C19.1654 23.4581 18.8733 23.7577 18.8733 24.357C18.8733 25.8101 18.8486 27.2631 18.8733 28.7039C18.898 29.7013 18.5771 30.4894 17.6143 30.9081C16.6144 31.3391 15.8121 30.982 15.0962 30.2677C11.0475 26.2903 6.9988 22.3252 2.96246 18.3478C2.54278 17.9291 2.1231 17.5228 1.70342 17.1041C0.740619 16.119 0.740619 14.9614 1.7281 13.9886C5.51758 10.2452 9.33174 6.51403 13.1336 2.77057C13.8125 2.10561 14.4913 1.44066 15.1702 0.775701C15.8615 0.0984311 16.6515 -0.209419 17.5772 0.196943C18.4907 0.590991 18.8733 1.31752 18.861 2.31495C18.8363 4.06354 18.861 5.79982 18.861 7.67155L18.8733 7.64692Z" fill="white"/>
<path d="M34.6853 33.6542C35.9197 33.1739 37.0553 32.9523 38.2896 33.2971C40.3757 33.8758 41.7582 35.5136 41.9063 37.3238C41.9927 38.4443 42.0174 39.5895 41.9186 40.7224C41.7088 43.3207 39.487 45.1924 36.8454 45.0939C34.3397 45.0077 32.2536 42.9143 32.2289 40.3776C32.1919 37.4962 32.1919 34.627 32.2289 31.7455C32.2536 29.5783 33.7349 27.7927 35.7839 27.3248C37.8823 26.8569 39.9684 27.7681 40.9558 29.6891C41.3755 30.5141 41.7088 31.3884 41.3508 32.3489C41.1287 32.94 40.6473 33.0262 40.1535 33.0262C39.6968 33.0262 39.3265 32.8168 39.2154 32.312C39.1413 31.9795 39.0549 31.6593 38.9685 31.3392C38.6846 30.2309 37.7712 29.6029 36.6356 29.7014C35.6111 29.7876 34.7841 30.6003 34.71 31.6593C34.6606 32.2873 34.71 32.9154 34.71 33.6665L34.6853 33.6542ZM39.561 39.1339H39.4993C39.4993 38.7153 39.5116 38.3089 39.4993 37.9025C39.4499 36.6588 38.4378 35.5752 37.3021 35.5382C35.9197 35.5013 34.7841 36.4248 34.6977 37.7548C34.6359 38.6537 34.6483 39.5649 34.6977 40.4638C34.7717 41.5967 35.7098 42.4833 36.8825 42.6188C37.9193 42.7419 39.0426 42.0524 39.3388 40.9933C39.5116 40.4023 39.487 39.7496 39.561 39.1216V39.1339Z" fill="white"/>
<path d="M52.6701 36.1907C52.6701 37.5453 52.6701 38.9121 52.6701 40.2667C52.6454 42.9511 50.4853 45.0815 47.7944 45.0938C45.1158 45.0938 42.931 42.9634 42.9063 40.279C42.8816 37.5576 42.8446 34.8362 42.9063 32.1271C42.9804 29.2826 44.9677 27.2508 47.8684 27.2138C50.51 27.1769 52.6454 29.4057 52.6577 32.1148C52.6577 33.4693 52.6577 34.8362 52.6577 36.1907H52.6701ZM50.2137 36.1907C50.2137 34.8978 50.2137 33.6171 50.2137 32.3241C50.2137 30.7603 49.2262 29.7013 47.8191 29.6766C46.3996 29.652 45.3997 30.6987 45.3874 32.2749C45.3627 34.8485 45.3627 37.4345 45.3874 40.0081C45.3874 41.5597 46.4119 42.631 47.8191 42.631C49.2016 42.631 50.2261 41.535 50.2261 39.9835C50.2261 38.7151 50.2261 37.4468 50.2261 36.1784L50.2137 36.1907Z" fill="white"/>
<path d="M29.5385 35.7108C31.1555 37.2624 31.2789 39.1833 30.9827 41.1659C30.6123 43.6656 28.0943 45.4512 25.6009 45.0571C23.0087 44.6508 21.1572 42.2495 21.4905 39.7498C21.5769 39.1341 22.0829 38.6538 22.6754 38.6415C23.3173 38.6292 23.8357 39.0725 23.9221 39.7375C23.9592 40.033 23.9345 40.3285 23.9839 40.6118C24.1567 41.8062 25.1935 42.6805 26.3415 42.6313C27.6005 42.5697 28.5386 41.6092 28.5757 40.3409C28.5757 40.0207 28.5757 39.7128 28.5757 39.3927C28.5757 37.9396 27.7857 37.0653 26.3291 36.9176C25.7613 36.856 25.2429 36.659 25.1441 36.0925C25.0701 35.6985 25.1565 35.1567 25.4034 34.8611C25.6379 34.5779 26.144 34.4917 26.5513 34.4178C27.5141 34.2577 28.2671 33.6667 28.4893 32.7431C28.7238 31.7826 28.5633 30.8837 27.7733 30.2064C26.4402 29.0735 24.4035 29.7631 24.0085 31.4625C23.9592 31.6595 23.9468 31.8688 23.9221 32.0659C23.8234 32.7924 23.305 33.2357 22.6261 33.1864C21.9472 33.1372 21.4658 32.6446 21.4781 31.9058C21.4781 30.6005 21.9719 29.4676 22.91 28.5564C24.7738 26.7585 27.6499 26.7216 29.5014 28.4455C31.4023 30.2188 31.5998 33.1987 29.9335 35.2059C29.8224 35.3414 29.6989 35.4768 29.5138 35.6862L29.5385 35.7108Z" fill="white"/>
</svg>
