<svg width="40" height="40" viewBox="0 0 40 40" fill="none" xmlns="http://www.w3.org/2000/svg">
<rect width="40" height="40" fill="#F5F5F5"/>
<g id="Frame 7">
<rect width="1920" height="4151" transform="translate(-270 -453)" fill="white"/>
<rect id="Rectangle 2388" x="-29.5" y="-14.5" width="419" height="69" rx="34.5" stroke="#D9D9D9"/>
<g id="bi:search" clip-path="url(#clip0_0_1)">
<path id="Vector" d="M29.3543 25.8605C31.7751 22.5572 32.8593 18.4617 32.3901 14.3934C31.9209 10.325 29.9328 6.58384 26.8237 3.91832C23.7146 1.2528 19.7137 -0.140496 15.6214 0.0171872C11.5291 0.17487 7.64728 1.8719 4.75249 4.76876C1.85769 7.66563 0.163441 11.5487 0.00868664 15.6411C-0.146068 19.7335 1.25009 23.7334 3.91783 26.8406C6.58558 29.9478 10.3282 31.9332 14.3969 32.3995C18.4655 32.8657 22.5603 31.7786 25.8618 29.3555H25.8593C25.9343 29.4555 26.0143 29.5505 26.1043 29.643L35.7293 39.268C36.1981 39.7371 36.834 40.0008 37.4972 40.001C38.1604 40.0012 38.7965 39.738 39.2656 39.2692C39.7347 38.8005 39.9983 38.1646 39.9986 37.5014C39.9988 36.8382 39.7356 36.2021 39.2668 35.733L29.6418 26.108C29.5524 26.0175 29.4563 25.9364 29.3543 25.8605ZM29.9993 16.2505C29.9993 18.0562 29.6437 19.8442 28.9527 21.5124C28.2617 23.1806 27.2488 24.6964 25.972 25.9732C24.6952 27.25 23.1794 28.2628 21.5112 28.9538C19.843 29.6448 18.055 30.0005 16.2493 30.0005C14.4436 30.0005 12.6556 29.6448 10.9874 28.9538C9.31919 28.2628 7.8034 27.25 6.5266 25.9732C5.24979 24.6964 4.23697 23.1806 3.54597 21.5124C2.85497 19.8442 2.49932 18.0562 2.49932 16.2505C2.49932 12.6038 3.94797 9.1064 6.5266 6.52778C9.10522 3.94915 12.6026 2.5005 16.2493 2.5005C19.896 2.5005 23.3934 3.94915 25.972 6.52778C28.5507 9.1064 29.9993 12.6038 29.9993 16.2505Z" fill="black"/>
</g>
</g>
<defs>
<clipPath id="clip0_0_1">
<rect width="40" height="40" fill="white"/>
</clipPath>
</defs>
</svg>
