<svg width="40" height="40" viewBox="0 0 40 40" fill="none" xmlns="http://www.w3.org/2000/svg">
<g id="carbon:location-filled">
<path id="Vector" d="M20.0789 3.29492C16.5894 3.29903 13.244 4.68315 10.7766 7.14368C8.30914 9.60421 6.92112 12.9402 6.91701 16.4199C6.91283 19.2635 7.8443 22.03 9.56853 24.2949C9.56853 24.2949 9.92749 24.7662 9.98612 24.8342L20.0789 36.704L30.1764 24.8283C30.2291 24.765 30.5892 24.2949 30.5892 24.2949L30.5904 24.2913C32.3138 22.0274 33.2448 19.2622 33.2408 16.4199C33.2366 12.9402 31.8486 9.60421 29.3812 7.14368C26.9137 4.68315 23.5684 3.29903 20.0789 3.29492ZM20.0789 21.1926C19.1323 21.1926 18.2069 20.9127 17.4198 20.3883C16.6328 19.8639 16.0193 19.1185 15.6571 18.2464C15.2948 17.3743 15.2 16.4146 15.3847 15.4888C15.5694 14.563 16.0252 13.7126 16.6946 13.0451C17.3639 12.3776 18.2167 11.9231 19.1452 11.7389C20.0736 11.5547 21.0359 11.6493 21.9105 12.0105C22.785 12.3717 23.5325 12.9835 24.0584 13.7683C24.5843 14.5532 24.865 15.476 24.865 16.4199C24.8634 17.6852 24.3587 18.8983 23.4614 19.793C22.5642 20.6877 21.3478 21.1911 20.0789 21.1926Z" fill="#1B5A96"/>
</g>
</svg>
