<svg xmlns="http://www.w3.org/2000/svg" width="80" height="80" fill="none" xmlns:v="https://vecta.io/nano"><g clip-path="url(#A)"><g fill="#92288d"><path d="M56.517 46.661v-5.959c0-8.217-7.046-14.902-15.707-14.902h-1.639c-8.661 0-15.707 6.686-15.707 14.902v26.34c0 .53.428.959.955.959h19.669c.528 0 .956-.429.956-.958v-3.689h4.781c3.163.073 5.789-2.435 5.873-5.607V54.67l3.319-.627a.96.96 0 0 0 .762-1.12.99.99 0 0 0-.094-.272l-3.167-5.987v-.002zm-1.953 6.269a.96.96 0 0 0-.779.942v3.872c-.084 2.114-1.854 3.762-3.961 3.689h-5.737c-.528 0-.956.429-.956.958v3.689H25.376V40.7c0-7.16 6.188-12.984 13.795-12.984h1.639c7.607 0 13.795 5.825 13.795 12.984v6.198a.97.97 0 0 0 .111.45l2.67 5.046-2.823.533.001.002zM43.478 35.879a5.6 5.6 0 0 0-4.416-1.411c-2.713.352-4.815 2.55-5.055 5.282-.19 1.925.559 3.825 2.01 5.099a1.04 1.04 0 0 1 .352.785v1.463c-.006 1.471 1.177 2.67 2.644 2.678h1.407c1.466-.01 2.648-1.207 2.644-2.678v-1.463c-.004-.295.12-.577.338-.774a6.02 6.02 0 0 0 .578-8.473 6.04 6.04 0 0 0-.501-.511l-.001.002zm-3.058 11.98h-1.407c-.411-.008-.738-.348-.731-.76V46.9h2.868v.199c.007.412-.32.752-.731.76h.001zm1.734-4.45a2.9 2.9 0 0 0-.93 1.573h-3.015a2.95 2.95 0 0 0-.938-1.581 4.09 4.09 0 0 1-1.36-3.467c.17-1.824 1.562-3.295 3.369-3.559a4.08 4.08 0 0 1 .438-.024 3.7 3.7 0 0 1 2.489.961 4.1 4.1 0 0 1 .277 5.774c-.104.114-.214.223-.329.325l-.001-.001zm-3.393-12.814h1.912v2.877h-1.912v-2.877zm7.649 8.632h2.868v1.918H46.41v-1.918zm-16.254 0h2.868v1.918h-2.868v-1.918zm2.118-5.146l1.352-1.356 2.028 2.035-1.352 1.356-2.028-2.035zm11.494.68l2.028-2.035 1.352 1.356-2.028 2.035-1.352-1.356zm-5.007-11.839h1.912v1.918h-1.912v-1.918z" fill-opacity=".94"/></g><path d="M40.839 15.435h1.912c.528 0 .956-.429.956-.959 0-.174-.047-.345-.136-.494l-2.868-4.796c-.311-.454-.93-.569-1.383-.258a1.01 1.01 0 0 0-.257.258l-2.868 4.796a.96.96 0 0 0 .328 1.316.95.95 0 0 0 .492.137h1.912v5.755h1.912v-5.755zm-.956-3.89l1.18 1.972h-2.358l1.18-1.972h-.001z" fill="#8ec640"/><path d="M25.555 27.75l1.352-1.356 1.352 1.356-1.352 1.356-1.352-1.356z" fill="#92288d" fill-opacity=".94"/><g fill="#8ec640"><path d="M24.207 26.394l1.352-1.356-4.056-4.069 1.353-1.356a.96.96 0 0 0 0-1.356c-.123-.123-.276-.211-.445-.253l-5.409-1.356c-.511-.128-1.03.183-1.159.697a.96.96 0 0 0 0 .465l1.352 5.425a.96.96 0 0 0 1.158.699.94.94 0 0 0 .445-.253l1.352-1.356 4.056 4.069h.002zm-5.567-5.268l-.557-2.231 2.225.559-1.668 1.672zm43.792-4.479l-5.409 1.356a.96.96 0 0 0-.697 1.162.95.95 0 0 0 .252.446l1.353 1.356-4.056 4.069 1.352 1.356 4.056-4.069 1.352 1.356c.373.374.978.375 1.352 0 .123-.123.21-.277.252-.446l1.352-5.425a.96.96 0 0 0-.694-1.163.95.95 0 0 0-.464 0v.002zm-1.639 4.479l-1.668-1.672 2.225-.559-.557 2.231z"/></g><path d="M51.164 27.752l1.352-1.356 1.352 1.356-1.352 1.356-1.352-1.356z" fill="#92288d" fill-opacity=".94"/></g><defs><clipPath id="A"><path fill="#fff" transform="translate(15.815 8.567)" d="M0 0h47.805v59.433H0z"/></clipPath></defs></svg>