<svg width="67" height="76" viewBox="0 0 67 76" fill="none" xmlns="http://www.w3.org/2000/svg">
<g clip-path="url(#clip0_23_2578)">
<path d="M32.8527 13.2889C21.8074 13.6101 12.4209 22.7839 11.9354 33.7443C11.7129 39.0037 13.4121 44.1426 16.75 48.1975C18.7527 50.6466 20.2295 53.216 21.1196 55.8658L21.241 56.2271L23.5067 70.6603H25.6712C26.9254 73.7918 29.9801 76 33.5607 76C37.1413 76 40.196 73.7718 41.4502 70.6603H43.6147L45.9816 55.6048C46.8717 53.0956 48.308 50.6064 50.3916 48.0169C53.4665 44.2028 55.0849 39.5858 55.0849 34.6878C55.0849 28.8462 52.7585 23.3861 48.5305 19.3312C44.3025 15.2562 38.7394 13.0882 32.8527 13.2889ZM40.1555 66.6455H26.9861L25.5903 57.7527H41.5513L40.1555 66.6455ZM33.5607 71.9852C32.3267 71.9852 31.1938 71.4833 30.3847 70.6603H36.7367C35.9275 71.4833 34.7947 71.9852 33.5607 71.9852ZM47.2156 45.5076C44.9903 48.2778 43.3922 50.9677 42.3403 53.7379H24.6597C23.5876 50.9276 21.9894 48.2176 19.9058 45.6682C17.1951 42.3761 15.7992 38.2007 16.0015 33.9249C16.3859 25.0322 24.0124 17.5647 32.9943 17.3238C37.7887 17.2033 42.2998 18.9297 45.7388 22.2419C49.1778 25.5541 51.0592 29.9704 51.0592 34.7279C51.0592 38.7025 49.7443 42.4564 47.256 45.5478L47.2156 45.5076Z" fill="white"/>
<path d="M18.3887 34.6878H21.2208C21.2208 29.9102 24.0732 25.534 28.4629 23.5668L27.3099 20.9973C21.8884 23.4062 18.3887 28.786 18.3887 34.6677V34.6878Z" fill="white"/>
<path d="M33.5 22.503C35.1588 22.503 36.7569 22.8242 38.2742 23.4665L39.3665 20.877C37.5054 20.0941 35.5229 19.6926 33.5 19.6926V22.503Z" fill="white"/>
<path d="M34.9161 0H32.084V7.38722H34.9161V0Z" fill="white"/>
<path d="M56.9763 8.04114L51.6265 13.3499L53.6291 15.3371L58.9789 10.0284L56.9763 8.04114Z" fill="white"/>
<path d="M67.0002 32.0781H59.6367V34.8885H67.0002V32.0781Z" fill="white"/>
<path d="M10.0241 8.03158L8.02148 10.0188L13.3713 15.3275L15.3739 13.3403L10.0241 8.03158Z" fill="white"/>
<path d="M7.36353 32.0781H0V34.8885H7.36353V32.0781Z" fill="white"/>
</g>
<defs>
<clipPath id="clip0_23_2578">
<rect width="67" height="76" fill="white"/>
</clipPath>
</defs>
</svg>
