<svg width="80" height="76" viewBox="0 0 80 76" fill="none" xmlns="http://www.w3.org/2000/svg">
<path d="M79.947 10.0784V25.289H75.064V10.0784H79.947Z" fill="white"/>
<path d="M73.5912 14.7451V25.2889H68.6816V14.7451H73.5912Z" fill="white"/>
<path d="M63.9708 13.0567C63.44 12.5381 62.9623 12.0595 62.5244 11.634C64.5679 9.59972 66.5981 7.59202 68.6946 5.50455C69.305 6.08957 70.0348 6.75437 70.7911 7.47236C72.808 5.51784 74.7984 3.58992 76.8419 1.62211C76.5765 1.3163 76.3244 1.03709 76.0325 0.691392C77.3594 0.46536 78.62 0.239328 80 0C79.7478 1.35619 79.509 2.63261 79.2436 4.01539C78.9251 3.70959 78.673 3.47026 78.3678 3.17775C75.8467 5.6508 73.3521 8.11057 70.8044 10.6102C70.0348 9.89223 69.305 9.18754 68.5486 8.46956C67.0094 10.0119 65.4834 11.5409 63.9708 13.0567Z" fill="white"/>
<path d="M67.1289 18.1755V25.2756H62.2856V18.1755H67.1289Z" fill="white"/>
<path d="M34.146 40.3013C37.0519 45.2075 39.9579 50.127 42.8506 55.0333C43.4212 56.0039 43.169 56.5224 42.0677 56.6554C34.0266 57.6659 25.9854 58.6764 17.9576 59.7002C17.5197 59.7534 17.0685 59.9129 16.6837 60.1389C14.5872 61.3489 12.5172 62.5987 10.4339 63.8352C8.27105 65.1116 5.89586 64.5 4.60875 62.3328C3.2951 60.1124 1.98144 57.8919 0.667794 55.6715C-0.619318 53.4776 -0.00893486 51.0844 2.18048 49.7813C4.27702 48.5315 6.37355 47.3083 8.45681 46.0452C8.80181 45.8324 9.13354 45.5399 9.37239 45.2075C14.136 38.6393 18.8731 32.0578 23.6235 25.4762C23.8491 25.1571 24.0614 24.8247 24.5258 24.838C24.977 24.8513 25.1893 25.1704 25.4016 25.5161C27.8697 29.7044 30.3377 33.8793 32.8191 38.0676C33.2569 38.8121 33.6948 39.5567 34.146 40.3013Z" fill="white"/>
<path d="M51.9268 30.4091C54.2887 34.7702 54.6337 39.7163 52.5106 44.7954C52.0064 45.992 50.8254 46.484 49.7506 46.0053C48.6758 45.5267 48.2778 44.3699 48.7554 43.1866C50.5202 38.9186 50.1487 34.8367 47.4816 31.0739C45.3585 28.0823 42.3464 26.4602 38.6974 26.0879C37.6624 25.9815 36.9591 25.463 36.7203 24.5988C36.3222 23.216 37.397 21.8997 38.8699 22.006C41.3778 22.1789 43.7131 22.9368 45.876 24.1999C48.291 25.6226 50.2151 27.5638 51.9268 30.4091Z" fill="white"/>
<path d="M21.8057 63.3035C22.562 63.2104 23.2653 63.1173 23.9553 63.0376C25.9855 62.7849 28.0156 62.5323 30.0326 62.2664C30.3908 62.2132 30.6031 62.2797 30.8022 62.6121C32.2751 65.1383 33.7878 67.6646 35.2739 70.1908C36.0037 71.4273 35.7118 72.5176 34.491 73.2489C33.4029 73.9004 32.3149 74.5519 31.2135 75.1901C30.1785 75.7884 29.0108 75.5491 28.4005 74.5253C26.2243 70.8822 24.0747 67.2258 21.9251 63.5827C21.8853 63.5295 21.872 63.4497 21.8189 63.3035H21.8057Z" fill="white"/>
<path d="M44.6417 34.0922C46.3401 36.9641 46.1013 40.6205 44.0446 43.2531C43.2351 44.2769 42.0144 44.4896 41.0723 43.7717C40.1169 43.0404 40.0107 41.8172 40.7936 40.7668C41.8552 39.3707 41.9746 37.589 41.1121 36.1398C40.2496 34.6905 38.644 33.9592 36.9057 34.2118C35.9106 34.3581 35.0613 33.9858 34.65 33.2013C34.2519 32.4435 34.305 31.4862 34.9286 30.9011C35.2736 30.5687 35.7779 30.2895 36.2423 30.2097C39.533 29.5848 42.9034 31.1803 44.6151 34.0922H44.6417Z" fill="white"/>
<path d="M14.8825 16.8992C14.9754 16.4871 15.0683 16.0882 15.1611 15.676C15.254 15.2505 15.3602 14.8118 15.4531 14.3863C15.4796 14.2932 15.4531 14.2267 15.3867 14.1736C15.3071 14.1071 15.2408 14.0406 15.1744 13.9608C15.0815 13.8279 14.9754 13.8279 14.8161 13.8544C14.0465 14.0406 13.2769 14.2134 12.5073 14.3863C12.4144 14.4129 12.3746 14.3863 12.3348 14.2932C11.8969 13.2295 11.459 12.1791 11.0212 11.1288C10.9814 11.0357 10.9946 10.9825 11.0875 10.9293C11.7775 10.5039 12.4675 10.0651 13.1575 9.63961C13.2371 9.58643 13.2769 9.53324 13.2769 9.42688C13.2769 9.30721 13.2769 9.17425 13.2769 9.05459C13.2769 8.94822 13.2504 8.89503 13.1575 8.84185C12.4675 8.41638 11.7775 7.97761 11.0875 7.55214C10.9946 7.49895 10.9814 7.44577 11.0212 7.3527C11.459 6.30231 11.8969 5.23863 12.3348 4.18825C12.3746 4.09518 12.4144 4.06858 12.5073 4.09517C13.3035 4.28132 14.0996 4.45417 14.8958 4.65361C14.9886 4.6802 15.055 4.65361 15.1081 4.58713C15.1611 4.52065 15.2275 4.44087 15.3071 4.38769C15.4531 4.28132 15.4531 4.16166 15.4133 4.0021C15.2275 3.25753 15.0683 2.49965 14.8958 1.75508C14.8958 1.70189 14.8692 1.64871 14.8692 1.58223C15.9971 1.11687 17.125 0.638212 18.2661 0.172852C18.3059 0.226036 18.3325 0.27922 18.359 0.319108C18.7704 0.997204 19.195 1.662 19.6063 2.3401C19.6727 2.44647 19.739 2.49965 19.8584 2.47306C19.9381 2.45977 20.0309 2.45977 20.1106 2.47306C20.2698 2.49965 20.3627 2.44647 20.4556 2.30021C20.8669 1.62212 21.2782 0.970612 21.6896 0.292516C21.7559 0.186148 21.809 0.186148 21.9152 0.226036C22.9502 0.664804 23.9984 1.09028 25.0334 1.52904C25.1529 1.58223 25.1661 1.62212 25.1396 1.74178C24.9538 2.52625 24.7813 3.32401 24.5955 4.10847C24.569 4.20154 24.5823 4.25473 24.6486 4.30791C24.7017 4.3478 24.7548 4.38769 24.7813 4.44087C24.9273 4.65361 25.0998 4.6669 25.3386 4.60042C26.0684 4.41428 26.7982 4.25473 27.528 4.09517C27.6077 4.08188 27.6475 4.06858 27.6873 4.16165C28.1384 5.25193 28.5896 6.3289 29.0275 7.41918C29.0275 7.43247 29.0275 7.45907 29.0407 7.48566C29.0009 7.51225 28.9478 7.53884 28.908 7.57873C28.2313 7.99091 27.5679 8.41638 26.8911 8.82856C26.785 8.89503 26.7186 8.96152 26.7452 9.09448C26.7584 9.16096 26.7584 9.24073 26.7452 9.32051C26.7054 9.50665 26.785 9.61302 26.9442 9.70609C27.5944 10.0917 28.2313 10.5039 28.8815 10.9027C28.9346 10.9293 28.9744 10.9692 29.0407 11.0091C28.9478 11.2351 28.855 11.4612 28.7621 11.6872C28.4038 12.5514 28.0455 13.4157 27.6873 14.2932C27.6475 14.3996 27.5944 14.4262 27.475 14.3996C26.6921 14.2134 25.9092 14.0406 25.1263 13.8544C25.0069 13.8279 24.9405 13.8544 24.8742 13.9342C24.8742 13.9342 24.8609 13.9608 24.8477 13.9608C24.5425 14.147 24.5557 14.3996 24.6354 14.7187C24.8211 15.3968 24.9538 16.0882 25.113 16.7663C25.1396 16.8726 25.113 16.9258 25.0202 16.9657C23.9719 17.4045 22.9236 17.83 21.8754 18.282C21.7692 18.3219 21.7294 18.2953 21.6631 18.2155C21.2384 17.5241 20.8138 16.8461 20.3892 16.1547C20.3229 16.0483 20.2565 16.0084 20.1371 16.035C20.084 16.035 20.0309 16.0483 19.9779 16.035C19.7258 15.9685 19.5931 16.1148 19.4736 16.3142C19.0888 16.9524 18.6908 17.5906 18.2927 18.2155C18.2529 18.282 18.2263 18.3352 18.1202 18.2953C17.0454 17.8433 15.9573 17.3912 14.8692 16.9391C14.856 16.9391 14.8427 16.9258 14.8161 16.8992H14.8825ZM16.0369 16.3142C16.6606 16.5668 17.271 16.8195 17.8813 17.0854C17.9211 17.0322 17.9477 16.9923 17.9742 16.9391C18.359 16.3275 18.7438 15.7159 19.1154 15.1043C19.1684 15.0112 19.2215 14.9846 19.3409 14.9846C19.8054 14.9846 20.2698 14.9846 20.7342 14.9846C20.8404 14.9846 20.9067 15.0112 20.9598 15.091C21.3313 15.7026 21.7161 16.3142 22.1009 16.9258C22.1275 16.9657 22.154 17.0189 22.1938 17.0721C22.8175 16.8195 23.4279 16.5668 24.0382 16.3142C24.0382 16.261 24.025 16.2344 24.0117 16.1945C23.8392 15.4766 23.68 14.7453 23.5075 14.0273C23.4809 13.9342 23.5075 13.8677 23.5738 13.8013C23.9056 13.4822 24.2373 13.1498 24.5557 12.8174C24.6354 12.7376 24.6884 12.6977 24.8079 12.7376C25.2059 12.844 25.604 12.9237 26.0154 13.0168C26.3736 13.0966 26.7186 13.1764 27.0769 13.2561C27.329 12.6312 27.5811 12.0196 27.8465 11.408C27.7934 11.3681 27.7404 11.3415 27.7005 11.3149C27.1034 10.9426 26.493 10.557 25.8959 10.1847C25.7898 10.1183 25.7632 10.0518 25.7632 9.93212C25.7632 9.46676 25.7632 9.0147 25.7632 8.54934C25.7632 8.44297 25.7765 8.38979 25.8694 8.3366C26.493 7.95102 27.1034 7.56543 27.7271 7.17985C27.8332 7.11337 27.8332 7.06019 27.7934 6.95382C27.5679 6.43527 27.3555 5.91673 27.1432 5.38489C27.1167 5.3317 27.1034 5.29182 27.0769 5.23863C27.0105 5.25193 26.9575 5.26522 26.9044 5.27852C26.2011 5.43807 25.4979 5.61092 24.7813 5.77047C24.7282 5.77047 24.6486 5.77047 24.6088 5.73058C24.2505 5.38489 23.9056 5.03919 23.5606 4.6802C23.5207 4.64031 23.4942 4.56054 23.5075 4.50735C23.5473 4.26802 23.6136 4.04199 23.6667 3.80266C23.7861 3.27082 23.9056 2.73898 24.0382 2.19385C23.4146 1.94122 22.8042 1.6886 22.1938 1.42268C22.154 1.48916 22.1275 1.52904 22.1009 1.56893C21.7161 2.18055 21.3313 2.79217 20.9598 3.40378C20.9067 3.49685 20.8404 3.51015 20.7475 3.51015C20.2831 3.51015 19.8186 3.51015 19.3542 3.51015C19.2481 3.51015 19.1817 3.49685 19.1286 3.40378C18.7571 2.79217 18.3723 2.18055 17.9875 1.56893C17.9609 1.52904 17.9344 1.47586 17.8946 1.42268C17.271 1.6753 16.6606 1.92793 16.0502 2.18055C16.0502 2.24703 16.0767 2.30021 16.09 2.3534C16.2492 3.07138 16.4217 3.77607 16.581 4.49406C16.581 4.54724 16.5677 4.62702 16.5279 4.6669C16.1961 5.0126 15.8511 5.345 15.5194 5.6907C15.4398 5.77047 15.3867 5.78377 15.2806 5.75718C14.5773 5.58433 13.874 5.42478 13.1575 5.25193C13.0513 5.22534 12.9983 5.25193 12.9452 5.3583C12.7329 5.89014 12.5073 6.42198 12.295 6.95382C12.2817 6.99371 12.2685 7.03359 12.2552 7.08678C12.3083 7.11337 12.3481 7.15326 12.4012 7.17985C13.0115 7.56543 13.6087 7.93772 14.219 8.32331C14.3119 8.37649 14.3517 8.44297 14.3385 8.56263C14.3385 9.028 14.3385 9.49336 14.3385 9.95872C14.3385 10.0651 14.3252 10.1183 14.2323 10.1715C13.6087 10.557 12.9983 10.9426 12.3879 11.3282C12.3481 11.3548 12.295 11.3814 12.2552 11.4213C12.5073 12.0462 12.7594 12.6578 13.0115 13.2694C13.0912 13.2561 13.1442 13.2428 13.1973 13.2295C13.9006 13.07 14.5906 12.9104 15.2938 12.7376C15.3602 12.7243 15.4265 12.711 15.4929 12.7775C15.8379 13.1365 16.1961 13.4822 16.5411 13.8279C16.581 13.8677 16.6075 13.9475 16.5942 14.0007C16.5411 14.2932 16.4615 14.5857 16.3952 14.8782C16.289 15.3569 16.1696 15.8223 16.0635 16.3142H16.0369Z" fill="white"/>
<path d="M16.687 9.25391C16.687 7.40577 18.1732 5.90332 20.0309 5.90332C21.8753 5.90332 23.3747 7.39247 23.3747 9.24062C23.3747 11.0888 21.8753 12.6045 20.0309 12.6045C18.1864 12.6045 16.687 11.1021 16.687 9.25391ZM17.6822 9.25391C17.6822 10.5569 18.7305 11.6073 20.0309 11.6073C21.3312 11.6073 22.3795 10.5569 22.3795 9.25391C22.3795 7.95091 21.3312 6.90052 20.0309 6.90052C18.7305 6.90052 17.6822 7.95091 17.6822 9.25391Z" fill="white"/>
<path d="M31.7876 12.7243C31.854 12.4185 31.9336 12.0994 31.9999 11.7936C32.0796 11.4612 32.1459 11.1421 32.2255 10.8097C32.2388 10.7432 32.2255 10.69 32.1724 10.6501C32.1194 10.5969 32.053 10.557 32.0132 10.4906C31.9469 10.3842 31.854 10.3842 31.7478 10.4108C31.164 10.557 30.5801 10.6767 29.9963 10.823C29.9167 10.8363 29.8901 10.823 29.8636 10.7565C29.5319 9.94542 29.2001 9.14766 28.8684 8.3366C28.8419 8.25682 28.8419 8.23023 28.9215 8.19034C29.4523 7.87124 29.9698 7.53884 30.5005 7.20644C30.5669 7.16655 30.5934 7.12666 30.5934 7.04689C30.5934 6.95381 30.5934 6.86074 30.5934 6.76767C30.5934 6.68789 30.5669 6.64801 30.5005 6.60812C29.9698 6.28901 29.4523 5.95661 28.9215 5.62421C28.8551 5.58432 28.8419 5.54444 28.8684 5.47796C29.2001 4.6802 29.5319 3.86914 29.8636 3.05808C29.8901 2.9916 29.9167 2.96501 29.9963 2.9916C30.6067 3.13786 31.2171 3.27082 31.8142 3.41707C31.8805 3.43037 31.9336 3.41707 31.9734 3.36389C32.0132 3.31071 32.0663 3.25752 32.1194 3.21763C32.2255 3.13786 32.2255 3.04479 32.199 2.92512C32.0663 2.35339 31.9336 1.78167 31.8009 1.20994C31.8009 1.17005 31.7876 1.13016 31.7744 1.07698C32.6369 0.717985 33.4994 0.358992 34.3619 0C34.3884 0.039888 34.4149 0.0797761 34.4415 0.119664C34.7599 0.624913 35.0784 1.14346 35.3969 1.64871C35.4499 1.72848 35.4897 1.76837 35.5959 1.75507C35.6622 1.75507 35.7286 1.74178 35.7817 1.75507C35.9011 1.78167 35.9807 1.72848 36.0338 1.62211C36.339 1.10357 36.6574 0.611616 36.9759 0.0930721C37.029 0.013296 37.0688 0.013296 37.1484 0.039888C37.9445 0.372288 38.7274 0.704689 39.5236 1.02379C39.6165 1.06368 39.6297 1.10357 39.6032 1.18335C39.4572 1.78167 39.3245 2.37999 39.1918 2.9916C39.1786 3.05808 39.1918 3.11127 39.2317 3.15115C39.2715 3.17775 39.3113 3.21763 39.3378 3.25752C39.444 3.41708 39.5767 3.43037 39.7624 3.37719C40.3197 3.23093 40.877 3.12456 41.4343 2.9916C41.4874 2.97831 41.5272 2.97831 41.5538 3.04479C41.8988 3.86914 42.2305 4.69349 42.5755 5.51785C42.5755 5.53114 42.5755 5.54444 42.5888 5.57103C42.5622 5.59762 42.5224 5.61092 42.4826 5.63751C41.9784 5.95661 41.4609 6.27572 40.9566 6.59482C40.877 6.64801 40.824 6.70119 40.8505 6.79426C40.8505 6.84745 40.8505 6.91393 40.8505 6.96711C40.824 7.11337 40.877 7.17985 40.9965 7.25962C41.4874 7.55213 41.9784 7.87124 42.4693 8.17705C42.5091 8.20364 42.549 8.23023 42.5888 8.25682C42.5224 8.42967 42.4428 8.60252 42.3765 8.77537C42.0978 9.44017 41.8324 10.0917 41.5538 10.7565C41.514 10.8362 41.4874 10.8628 41.3945 10.8362C40.7974 10.69 40.2003 10.557 39.6032 10.4241C39.5236 10.3975 39.4572 10.4241 39.4174 10.4906C39.4174 10.4906 39.4042 10.5038 39.3909 10.5171C39.1653 10.6634 39.1653 10.8495 39.2317 11.0889C39.3643 11.6074 39.4705 12.126 39.6032 12.6445C39.6165 12.7243 39.6032 12.7642 39.5368 12.7908C38.7407 13.1232 37.9313 13.4556 37.1351 13.788C37.0555 13.8279 37.0157 13.8013 36.9759 13.7348C36.6574 13.2162 36.3257 12.6977 36.0072 12.1659C35.9542 12.0861 35.9011 12.0595 35.8215 12.0728C35.7817 12.0728 35.7419 12.0728 35.702 12.0728C35.503 12.0196 35.4101 12.126 35.3172 12.2855C35.0253 12.7775 34.7201 13.2561 34.4282 13.7348C34.4017 13.788 34.3751 13.8279 34.2955 13.788C33.4728 13.4423 32.6501 13.0966 31.8274 12.7642C31.8142 12.7642 31.8009 12.7509 31.7876 12.7376V12.7243ZM32.6634 12.2722C33.1278 12.4717 33.5922 12.6578 34.0699 12.8572C34.0965 12.8174 34.123 12.7775 34.1363 12.7509C34.4282 12.2855 34.7201 11.8202 35.012 11.3548C35.0519 11.2883 35.0917 11.2617 35.1846 11.2617C35.5428 11.2617 35.8878 11.2617 36.2461 11.2617C36.3257 11.2617 36.3788 11.275 36.4186 11.3415C36.7105 11.8069 37.0024 12.2722 37.2811 12.7376C37.3076 12.7775 37.3209 12.8041 37.3474 12.8439C37.8251 12.6445 38.2763 12.4584 38.754 12.2589C38.754 12.219 38.754 12.1924 38.7407 12.1791C38.608 11.634 38.4886 11.0756 38.3559 10.5304C38.3426 10.4507 38.3559 10.4108 38.409 10.3576C38.6611 10.1183 38.9132 9.86564 39.1653 9.59972C39.2184 9.53324 39.2715 9.50665 39.3511 9.53324C39.6563 9.61302 39.9615 9.6795 40.2667 9.74598C40.532 9.81246 40.7974 9.86564 41.0761 9.93212C41.2751 9.45346 41.4609 8.9881 41.6599 8.52274C41.6201 8.49615 41.5803 8.46956 41.5538 8.45626C41.0893 8.16375 40.6382 7.88453 40.1738 7.59202C40.0942 7.53884 40.0676 7.49895 40.0676 7.39258C40.0676 7.04689 40.0676 6.68789 40.0676 6.3422C40.0676 6.26242 40.0676 6.22253 40.1472 6.18265C40.6249 5.89013 41.0893 5.59762 41.567 5.30511C41.6467 5.25192 41.6466 5.21204 41.6201 5.13226C41.4476 4.73338 41.2884 4.3345 41.1292 3.93562C41.1159 3.89573 41.1026 3.86914 41.0761 3.82925C41.023 3.82925 40.9832 3.84255 40.9434 3.85584C40.3993 3.97551 39.8686 4.10847 39.3245 4.22813C39.2847 4.22813 39.2184 4.22813 39.1918 4.18824C38.9265 3.92232 38.6611 3.6564 38.3957 3.39048C38.3692 3.36389 38.3426 3.29741 38.3559 3.25752C38.3957 3.07138 38.4355 2.89853 38.4753 2.72568C38.5682 2.3268 38.6611 1.91463 38.754 1.50245C38.2763 1.30301 37.8119 1.11687 37.3474 0.917425C37.3209 0.970609 37.2944 0.997201 37.2678 1.03709C36.9759 1.50245 36.684 1.96781 36.392 2.43317C36.3522 2.49965 36.2992 2.51295 36.2328 2.51295C35.8745 2.51295 35.5295 2.51295 35.1713 2.51295C35.0917 2.51295 35.0386 2.49965 34.9988 2.43317C34.7069 1.96781 34.4149 1.50245 34.1363 1.03709C34.1097 0.997201 34.0965 0.970609 34.0699 0.930721C33.5922 1.13016 33.1411 1.31631 32.6634 1.51575C32.6634 1.56893 32.6767 1.60882 32.6899 1.64871C32.8094 2.19384 32.9421 2.73898 33.0615 3.27082C33.0615 3.31071 33.0615 3.37719 33.0217 3.40378C32.7696 3.6697 32.5042 3.92232 32.2521 4.18824C32.199 4.25472 32.1459 4.26802 32.0663 4.24143C31.5355 4.10847 30.9915 3.9888 30.4474 3.85584C30.3678 3.82925 30.328 3.85584 30.2882 3.93562C30.129 4.3478 29.9565 4.74668 29.784 5.14556C29.784 5.17215 29.7574 5.21204 29.7442 5.23863C29.784 5.26522 29.8105 5.29181 29.8503 5.30511C30.3148 5.59762 30.7792 5.89013 31.2303 6.16935C31.2967 6.20924 31.3232 6.26242 31.3232 6.3422C31.3232 6.70119 31.3232 7.04689 31.3232 7.40588C31.3232 7.48565 31.3099 7.52554 31.2436 7.56543C30.7792 7.85794 30.3015 8.15046 29.8371 8.44297C29.7973 8.46956 29.7707 8.48286 29.7309 8.50945C29.9299 8.9881 30.1157 9.45346 30.3148 9.91883C30.3678 9.91883 30.4209 9.89223 30.4607 9.89223C30.9915 9.77257 31.5223 9.63961 32.053 9.51994C32.1061 9.51994 32.1459 9.49335 32.199 9.54654C32.4644 9.81246 32.7297 10.0784 32.9951 10.3443C33.0217 10.3709 33.0482 10.4374 33.0349 10.4773C32.9951 10.7033 32.9421 10.916 32.889 11.1421C32.8094 11.501 32.7165 11.86 32.6369 12.2323L32.6634 12.2722Z" fill="white"/>
<path d="M33.1675 6.90073C33.1675 5.49136 34.3086 4.3479 35.7152 4.3479C37.1217 4.3479 38.2629 5.49136 38.2629 6.88744C38.2629 8.29682 37.1217 9.44027 35.7152 9.44027C34.3086 9.44027 33.1675 8.29682 33.1675 6.88744V6.90073ZM33.9238 6.90073C33.9238 7.89794 34.72 8.6957 35.7152 8.6824C36.7104 8.6824 37.4932 7.88464 37.4932 6.88744C37.4932 5.89024 36.6971 5.09248 35.7019 5.10577C34.7067 5.10577 33.9106 5.90353 33.9238 6.90073Z" fill="white"/>
<path d="M75.1833 72.9685H55.3193V49.8069H75.1833V72.9685ZM74.0687 51.2694H62.2724V52.0406H74.0687V51.2694ZM74.0687 53.224H62.2724V53.9951H74.0687V53.224ZM74.0687 55.1785H62.2724V55.9496H74.0687V55.1785ZM74.0687 57.133H56.4339V57.9042H74.0687V57.133ZM74.0687 59.0875H56.4339V59.8587H74.0687V59.0875ZM74.0687 61.042H56.4339V61.8132H74.0687V61.042ZM64.6609 68.7936H56.4339V69.5648H64.6609V68.7936ZM64.6609 70.7481H56.4339V71.5193H64.6609V70.7481ZM74.0687 68.7936H65.8418V69.5648H74.0687V68.7936ZM74.0687 70.7481H65.8418V71.5193H74.0687V70.7481ZM74.0687 62.9965H56.4339V67.6102H74.0687V62.9965ZM61.5161 51.2827H56.4339V55.9629H61.5161V51.2827Z" fill="white"/>
</svg>
