<svg width="64" height="69" viewBox="0 0 64 69" fill="none" xmlns="http://www.w3.org/2000/svg">
<g clip-path="url(#clip0_23_2587)">
<path d="M35.1236 45.2731C35.1236 39.181 38.8196 33.9487 44.0655 31.7687C42.5633 30.5817 40.7749 29.7823 38.7958 29.5522C34.8375 29.092 30.76 29.1162 26.7898 29.5522C21.7823 30.0851 17.8956 34.2031 17.1206 39.29C16.8226 41.24 17.073 43.2626 17.073 45.261C17.0253 45.261 16.9776 45.261 16.9299 45.261C16.9299 46.7992 17.0133 48.3495 16.906 49.8877C16.8345 51.0019 17.2041 51.4743 18.2414 51.7771C22.9865 53.1578 27.7913 54.0783 32.7272 54.1752C34.4202 54.2115 36.0894 54.1631 37.7466 54.0177C36.1609 51.0383 35.684 49.4032 35.684 49.4032C35.3025 48.1073 35.1117 46.7144 35.1117 45.2731H35.1236Z" fill="white"/>
<path d="M24.7035 27.5538C22.5694 25.3132 21.4725 22.6971 21.234 19.5965C17.8123 19.5965 14.4978 19.33 11.243 19.657C4.91214 20.2989 0.643881 25.3737 0.620036 31.8413C0.620036 34.736 0.643881 37.6428 0.596191 40.5375C0.596191 41.3005 0.798874 41.6881 1.56191 41.8577C4.2564 42.4632 6.92704 43.1778 9.63345 43.735C11.2549 44.062 12.936 44.1468 14.7363 44.3648C14.1759 36.2258 17.2162 30.5454 24.7035 27.5538Z" fill="white"/>
<path d="M63.4993 41.5792C63.7496 41.3491 63.9404 40.8283 63.9523 40.4771C63.9881 37.3523 64.0358 34.2154 63.9523 31.0906C63.8212 26.0642 60.4948 21.6071 55.7616 20.1174C52.0179 18.9426 48.1789 19.6814 44.316 19.4997C44.0656 22.6609 43.0045 25.3012 40.7988 27.5661C43.0879 28.4744 44.9479 29.6372 46.4262 31.03C47.4277 30.7999 48.4769 30.6788 49.5499 30.6788C56.2623 30.6788 61.8897 35.3175 63.4993 41.5913V41.5792Z" fill="white"/>
<path d="M32.7152 28.644C37.8658 28.6682 42.1102 24.3443 42.0625 19.1242C42.0148 13.9283 37.83 9.68924 32.7391 9.72557C27.6124 9.7498 23.4634 13.9768 23.4634 19.1727C23.4634 24.3685 27.6243 28.6197 32.7152 28.644Z" fill="white"/>
<path d="M20.2805 17.9979C20.7812 17.7557 21.3535 17.2349 21.4846 16.7383C22.1046 14.2433 23.3088 12.148 25.1687 10.3918C25.5025 10.0769 25.741 9.45919 25.729 8.99895C25.5621 3.98473 21.4131 0 16.4414 0C12.5785 0 9.22829 2.31332 7.79759 5.95893C6.40266 9.49552 7.273 13.5771 9.99133 16.2296C12.7454 18.9305 16.8349 19.6572 20.2805 17.9979Z" fill="white"/>
<path d="M39.9521 10.1373C42.1459 11.7845 43.517 14.0736 44.0058 16.7987C44.1846 17.8403 44.6496 18.2642 45.5557 18.4944C49.3113 19.4512 52.59 18.5791 55.1295 15.6118C57.7048 12.6081 58.2174 9.10785 56.5721 5.47435C54.9387 1.91353 52.0296 0.145235 48.7152 -0.000104818C43.7554 -0.0243281 39.9522 3.11259 39.0341 7.48489C38.7957 8.58704 38.9268 9.3743 39.9521 10.1373Z" fill="white"/>
<path d="M36.8407 49.4638C36.483 48.2526 36.3042 46.9567 36.3042 45.6244C36.3042 38.1152 42.3131 32.0352 49.7289 32.0352C57.1447 32.0352 63.1537 38.1152 63.1537 45.6244C63.1537 46.9567 62.9629 48.2526 62.6172 49.4638C62.6172 49.4638 60.4115 56.973 49.7409 68.9999C39.0464 56.9609 36.8288 49.4638 36.8288 49.4638H36.8407ZM49.717 38.3453C45.9257 38.3453 42.8377 41.4701 42.8377 45.3095C42.8377 49.1489 45.9137 52.2737 49.717 52.2737C53.5203 52.2737 56.5963 49.1489 56.5963 45.3095C56.5963 41.4701 53.5084 38.3453 49.717 38.3453Z" fill="white"/>
<path d="M24.7034 53.3154V57.2396H20.2324V61.5756H44.6259" stroke="white" stroke-miterlimit="10"/>
<path d="M7.15357 43.1902V48.5556H0.596191V54.1754H7.15357V65.3666H49.7527" stroke="white" stroke-miterlimit="10"/>
</g>
<defs>
<clipPath id="clip0_23_2587">
<rect width="64" height="69" fill="white"/>
</clipPath>
</defs>
</svg>
