<svg width="74" height="72" viewBox="0 0 74 72" fill="none" xmlns="http://www.w3.org/2000/svg">
<path d="M39.9456 55.5487C39.5374 56.4474 39.2252 57.2622 38.793 58.017C38.4928 58.5442 38.5649 58.9037 39.0091 59.2751C39.3813 59.5867 39.7175 59.9461 40.0417 60.3056C40.9542 61.2881 40.9662 62.6421 40.0177 63.6126C38.793 64.8708 37.5443 66.1169 36.2836 67.339C35.5032 68.0939 34.4706 68.0819 33.6662 67.339C33.1619 66.8598 32.6696 66.3685 32.1894 65.8653C31.9132 65.5777 31.6611 65.5178 31.2769 65.6855C30.0162 66.2487 28.7195 66.7519 27.4588 67.3271C27.2067 67.4469 26.9665 67.7824 26.9185 68.058C26.8344 68.5492 26.8945 69.0764 26.8945 69.5797C26.8705 70.9217 26.006 71.9042 24.6853 71.9521C23.2565 72.012 21.8157 72.012 20.3749 71.9521C19.0782 71.9042 18.0456 70.9217 18.1897 69.6516C18.3938 67.9262 17.7695 67.0994 16.1006 66.7399C15.2841 66.5722 14.5637 66.009 13.7593 65.6975C13.5192 65.6017 13.1109 65.6616 12.9188 65.8173C12.4025 66.2367 11.9583 66.7519 11.478 67.2192C10.5655 68.0939 9.54497 68.1059 8.65649 67.2192C7.45583 66.033 6.25517 64.8468 5.06652 63.6366C4.03395 62.5942 4.05797 61.2522 5.09053 60.1738C5.54678 59.6945 6.26718 59.2392 6.37524 58.688C6.47129 58.1488 5.93099 57.4898 5.69086 56.8787C5.37869 56.0879 5.06652 55.2851 4.80238 54.4704C4.6583 54.027 4.43017 53.8233 3.94991 53.8473C3.42162 53.8712 2.88132 53.8593 2.35303 53.8473C1.04432 53.8113 0.0717834 52.9486 0.0357637 51.6546C-0.0242692 49.9651 -0.0122626 48.2756 0.0357637 46.5982C0.0717834 45.3041 1.04432 44.4414 2.34103 44.3935C3.04941 44.3695 3.9379 44.5732 4.43017 44.2257C4.92244 43.8902 4.99448 42.9796 5.28264 42.3326C5.60682 41.5897 5.93099 40.8468 6.3032 40.1398C6.51932 39.7205 6.4833 39.4209 6.13511 39.0974C5.7629 38.7499 5.4027 38.3905 5.05451 38.019C4.05797 36.9766 4.05797 35.6226 5.05451 34.6161C6.24316 33.4179 7.44382 32.2197 8.64448 31.0335C9.54497 30.1468 10.5535 30.1468 11.466 31.0215C11.9463 31.4888 12.3905 32.0041 12.9068 32.4234C13.0989 32.5792 13.5071 32.6391 13.7473 32.5552C15.044 32.052 16.3167 31.5248 17.5774 30.9377C17.8295 30.8178 18.0696 30.4704 18.1177 30.2067C18.2017 29.6676 18.1177 29.1044 18.1537 28.5412C18.2137 27.3191 19.0782 26.3605 20.2909 26.3006C21.7677 26.2407 23.2565 26.2766 24.7333 26.3006C25.0455 26.3006 25.3456 26.4444 25.7298 26.5402C24.9614 29.7394 25.1535 32.8188 26.4022 35.8623C25.8379 36.018 25.3216 36.1259 24.8173 36.2816C22.332 37.1084 20.3869 38.6301 18.9701 40.8348C18.778 41.1344 18.5019 41.4099 18.2017 41.5897C14.9479 43.6506 13.3511 47.5208 14.2756 51.2112C15.2001 54.9377 18.4418 57.7055 22.284 57.9092C24.3611 58.017 26.1621 57.1903 27.783 55.9322C28.0831 55.7045 28.5154 55.5248 28.8876 55.5248C32.2734 55.4888 35.6473 55.5008 39.0331 55.5008C39.2853 55.5008 39.5374 55.5008 39.9336 55.5008L39.9456 55.5487Z" fill="white"/>
<path d="M47.1977 36.0061C47.5819 34.4245 47.9541 32.9148 48.3383 31.3211C50.8717 32.076 53.225 31.4649 55.3741 29.8953C57.1031 28.6372 58.2197 26.9357 58.712 24.8509C59.7085 20.6691 57.5113 16.4275 53.6212 14.6781C49.719 12.9287 44.8204 14.786 42.6712 19.1953C41.2904 18.3207 39.8256 17.6976 38.1927 17.4579C36.5478 17.2183 34.963 17.398 33.4021 17.9013C33.186 17.9732 32.9338 17.9372 32.7057 17.9612C32.7297 17.7215 32.7057 17.4579 32.7898 17.2423C33.234 16.1279 33.6783 15.0016 34.2065 13.9352C34.4707 13.396 34.4347 13.0486 33.9904 12.6771C33.6182 12.3656 33.282 12.0061 32.9579 11.6586C32.0454 10.6641 32.0333 9.32215 32.9819 8.3516C34.2065 7.09349 35.4552 5.84736 36.7159 4.62519C37.4963 3.85834 38.5289 3.87033 39.3333 4.62519C39.8376 5.10448 40.3299 5.59574 40.8102 6.09898C41.1103 6.4225 41.3865 6.43448 41.7947 6.24277C43.0074 5.69159 44.244 5.16439 45.4927 4.6851C45.925 4.51736 46.1411 4.30168 46.1171 3.83438C46.0931 3.30717 46.0931 2.76798 46.1171 2.24077C46.1771 0.958694 47.1136 0.0240957 48.3983 0.0121137C49.7911 -0.0118504 51.1838 -0.0118504 52.5646 0.0121137C53.8853 0.0360777 54.7978 0.982658 54.8458 2.31266C54.8699 2.99564 54.6778 3.84636 55.0139 4.32564C55.3501 4.79294 56.2266 4.87682 56.8509 5.1524C57.6314 5.49988 58.4118 5.84736 59.1682 6.24277C59.5644 6.44646 59.8406 6.43448 60.1528 6.09898C60.633 5.59574 61.1253 5.10448 61.6296 4.63718C62.458 3.87033 63.4666 3.88231 64.295 4.67312C65.5197 5.87133 66.7324 7.06953 67.933 8.29169C68.9536 9.33413 68.9296 10.6881 67.909 11.7545C67.4408 12.2338 66.7324 12.6891 66.6243 13.2403C66.5283 13.7795 67.0806 14.4385 67.3207 15.0496C67.6329 15.8404 67.945 16.6432 68.2092 17.4579C68.3533 17.9013 68.5814 18.105 69.0616 18.081C69.5899 18.057 70.1302 18.069 70.6585 18.081C71.9912 18.117 72.9638 19.0276 72.9998 20.3456C73.0358 21.9872 73.0358 23.6287 72.9998 25.2702C72.9638 26.5643 72.0513 27.4629 70.7426 27.5348C70.1662 27.5708 69.5779 27.4989 69.0136 27.5828C68.7375 27.6187 68.3773 27.8583 68.2692 28.11C67.6929 29.3681 67.1766 30.6502 66.6843 31.9442C66.6003 32.1599 66.6603 32.5433 66.8044 32.735C67.1646 33.1903 67.6209 33.5618 68.0171 33.9812C68.9416 34.9637 68.9536 36.3177 68.0171 37.2762C66.8044 38.5224 65.5677 39.7445 64.3311 40.9547C63.4906 41.7695 62.458 41.7695 61.6176 40.9547C61.1853 40.5353 60.7291 40.1279 60.3449 39.6846C59.9607 39.2413 59.6245 39.2053 59.0842 39.445C57.7154 40.068 56.3107 40.6072 54.9179 41.1704C54.6177 41.2902 54.3536 41.3501 54.1134 40.9547C52.5526 38.4025 50.3074 36.773 47.4018 36.066C47.3417 36.0541 47.2817 36.0061 47.2577 36.0061H47.1977Z" fill="white"/>
<path d="M41.8547 52.8885H41.0983C34.6627 52.8885 28.2152 52.8885 21.7797 52.8885C20.435 52.8885 20.0267 52.4811 20.0267 51.1631C20.0267 49.3658 19.9667 47.5565 20.0868 45.7592C20.3149 42.0567 23.3526 38.9414 27.0506 38.4861C27.6029 38.4142 27.9631 38.534 28.3473 39.0013C32.9218 44.573 40.606 44.573 45.1805 39.0013C45.5407 38.558 45.8529 38.4501 46.4052 38.558C48.8665 39.0612 51.0877 40.6908 51.9882 42.7277C46.6093 44.1057 43.2354 47.4846 41.8427 52.8885H41.8547Z" fill="white"/>
<path d="M63.3106 61.2042C65.9401 63.5766 68.5335 65.9131 71.1269 68.2496C71.259 68.3694 71.4031 68.5012 71.5351 68.621C72.4236 69.4358 72.5437 70.4663 71.8473 71.2571C71.1389 72.0599 70.0703 72.0479 69.1458 71.2092C68.0292 70.2027 66.9126 69.1962 65.796 68.1897C64.1631 66.7159 62.5302 65.2541 60.9093 63.7803C55.3983 67.6026 49.0708 65.4937 46.2253 61.5037C43.2716 57.3579 43.7519 51.6425 47.4139 48.0599C51.0039 44.5491 56.731 44.1537 60.8012 47.1373C64.8955 50.1328 66.4804 56.0878 63.3226 61.1922L63.3106 61.2042ZM62.3621 55.5007C62.3741 51.2591 58.9522 47.7843 54.7379 47.7603C50.4156 47.7364 46.9096 51.1632 46.9096 55.4408C46.9096 59.7064 50.3435 63.1692 54.6058 63.1812C58.8922 63.1812 62.3501 59.7663 62.3621 55.5007Z" fill="white"/>
<path d="M45.6008 30.2786C45.5528 33.1183 44.7243 35.6825 42.7553 37.8033C39.3454 41.4818 34.0505 41.4338 30.6887 37.7194C27.0146 33.6815 27.0146 26.8876 30.6766 22.8497C34.1586 19.0035 39.6696 19.0873 43.0194 23.0414C44.7844 25.1263 45.5648 27.5706 45.6008 30.2786ZM42.9834 30.3624C42.9474 27.8941 42.0709 25.7134 40.5941 24.2756C38.3368 22.0948 35.1911 22.0948 32.9459 24.2756C29.7521 27.3549 29.7641 33.2261 32.9699 36.3055C35.2151 38.4743 38.4089 38.4503 40.6181 36.2576C42.287 34.6041 42.9354 32.5312 42.9954 30.3624H42.9834Z" fill="white"/>
</svg>
