<svg width="1342" height="509" viewBox="0 0 1342 509" fill="none" xmlns="http://www.w3.org/2000/svg">
<g clip-path="url(#clip0_2008_3)">
<path d="M634.089 181.309L657.337 129.127L676.614 153.806L634.089 181.309Z" fill="#1B5A96"/>
<path d="M663.073 122.448L735.631 222.244L770.046 178.022L798.547 140.072L807.99 47.8418L663.073 122.448Z" fill="#1B5A96"/>
<path d="M811.8 10.6924L809.964 28.6115L887.956 6.67274L807.997 47.8418L798.555 140.072L903.754 0L811.8 10.6924Z" fill="#FB9100"/>
<path d="M697.389 24.0009L558.634 40.1349L597.642 73.0308L611.249 84.505L809.957 28.6115L811.794 10.6924L697.389 24.0009Z" fill="#1B5A96"/>
<path d="M619.997 95.7453L632.794 172.353L651.555 112.403L808.734 40.6213L809.406 34.0225L619.997 95.7453Z" fill="#1B5A96"/>
<path d="M809.406 34.0222L808.734 40.6211L857.503 18.3438L809.406 34.0222Z" fill="#FB9100"/>
<path d="M193.343 479.17C193.343 487.849 190.457 494.869 184.685 500.228C178.913 505.588 171.632 508.269 162.844 508.273C155.876 508.335 149.073 506.177 143.442 502.118C137.666 498.014 134.554 492.536 134.105 485.682L133.066 461.712H75.1787C69.6389 470.847 64.8482 478.382 60.8065 484.316C57.4852 489.325 53.7768 494.073 49.7145 498.517C46.3658 502.058 43.0751 504.57 39.8426 506.051C36.584 507.536 33.0355 508.295 29.4478 508.273C20.9037 508.273 13.8597 505.592 8.31584 500.228C2.77195 494.864 0 487.845 0 479.17C0 476.662 0.751083 473.695 2.25325 470.268C3.27033 467.779 4.48801 465.375 5.89454 463.079L135.12 268.246C138.944 262.404 144.107 257.537 150.189 254.038C156.222 250.523 163.105 248.689 170.107 248.732C176.805 248.732 182.349 251.071 186.739 255.75C191.129 260.428 193.331 266.419 193.343 273.724V479.17ZM104.334 405.566H132.145V363.843L104.334 405.566Z" fill="#FB9100"/>
<path d="M537.427 405.566H565.232V363.843L537.427 405.566ZM626.698 479.181C626.698 487.861 623.81 494.88 618.034 500.24C612.258 505.599 604.983 508.281 596.211 508.285C589.243 508.348 582.44 506.19 576.809 502.13C571.033 498.026 567.921 492.547 567.473 485.694L566.433 461.724H508.546C503.002 470.859 498.209 478.393 494.168 484.327C490.85 489.331 487.148 494.074 483.094 498.516C479.737 502.058 476.445 504.569 473.216 506.051C469.969 507.53 466.434 508.289 462.859 508.273C454.306 508.273 447.252 505.591 441.696 500.228C436.139 494.864 433.367 487.844 433.38 479.169C433.38 476.662 434.131 473.695 435.633 470.268C436.65 467.779 437.868 465.374 439.274 463.078L568.494 268.245C572.318 262.404 577.48 257.536 583.563 254.038C589.596 250.523 596.479 248.689 603.481 248.732C610.179 248.732 615.722 251.071 620.113 255.749C624.503 260.427 626.698 266.419 626.698 273.724V479.181Z" fill="#1B5A96"/>
<path d="M812.487 407.948V477.803C812.496 481.809 811.705 485.777 810.158 489.48C808.611 493.182 806.34 496.546 803.474 499.377C800.609 502.209 797.206 504.453 793.461 505.979C789.716 507.506 785.702 508.286 781.652 508.273C777.637 508.305 773.668 507.427 770.049 505.706C766.524 504.034 763.355 501.711 760.713 498.861C758.041 495.984 755.979 492.605 754.65 488.926C753.28 485.254 752.576 481.372 752.571 477.458V280.231C752.571 271.555 755.285 264.374 760.713 258.686C766.14 252.998 773.126 250.144 781.67 250.123H834.677C845.446 250.014 856.121 252.11 866.03 256.279C875.361 260.216 883.789 265.983 890.803 273.232C897.782 280.5 903.254 289.049 906.912 298.396C910.788 308.333 912.728 318.906 912.632 329.556C912.632 346.455 909.34 360.552 902.754 371.845C896.169 383.139 886.641 392.44 874.172 399.749L905.698 466.175C907.756 470.21 908.822 474.668 908.81 479.188C908.798 482.895 908.034 486.562 906.563 489.973C905.071 493.497 902.892 496.697 900.152 499.391C897.317 502.176 893.959 504.388 890.268 505.903C886.373 507.514 882.19 508.329 877.968 508.298C872.584 508.272 867.31 506.781 862.725 503.989C857.816 501.097 853.841 496.882 851.266 491.838L812.487 407.948ZM812.487 309.335V351.452H834.659C838.126 351.452 841.008 350.658 843.323 349.057C845.535 347.561 847.42 345.639 848.863 343.406C850.244 341.251 851.24 338.878 851.807 336.389C852.354 334.144 852.646 331.846 852.679 329.537C852.642 327.458 852.349 325.391 851.807 323.382C851.212 321.061 850.216 318.86 848.863 316.875C847.404 314.75 845.518 312.943 843.323 311.569C841.008 310.086 838.126 309.341 834.659 309.341L812.487 309.335Z" fill="#1B5A96"/>
<path d="M433.992 328.854C427.414 313.676 418.014 299.853 406.281 288.104C394.443 276.362 380.45 266.961 365.05 260.403C360.341 258.364 355.505 256.622 350.572 255.189C338.789 251.786 326.572 250.082 314.296 250.129H260.25C250.776 250.129 242.865 253.207 236.516 259.363C230.167 265.519 226.993 273.394 226.993 282.988V475.741C226.986 479.817 227.871 483.847 229.588 487.553C232.979 495.015 239.021 500.986 246.568 504.334C250.318 506.032 254.395 506.908 258.519 506.901H314.296C320.057 506.907 325.813 506.543 331.526 505.811C343.087 504.344 354.378 501.254 365.057 496.633C396.15 483.428 420.858 458.82 433.992 427.979C440.82 412.243 444.291 395.284 444.188 378.161C444.277 361.205 440.805 344.415 433.992 328.854ZM379.08 406.237C375.802 414.456 370.851 421.922 364.533 428.169C358.216 434.417 350.667 439.314 342.356 442.555C340.339 443.368 338.273 444.07 336.163 444.691C329.059 446.73 321.694 447.742 314.296 447.695H286.909V309.335H316.027C326.189 309.335 335.486 311.048 343.919 314.475C344.622 314.758 345.307 315.09 345.997 315.373C353.311 318.553 359.952 323.068 365.573 328.682C371.684 334.891 376.413 342.297 379.454 350.424C382.762 359.301 384.405 368.701 384.303 378.161C384.286 388.429 382.545 397.787 379.08 406.237Z" fill="#FB9100"/>
<path d="M711.374 257.116C705.979 251.872 699.379 249.087 691.574 248.763C691.063 248.763 690.541 248.763 690.018 248.763C686.104 248.698 682.216 249.406 678.582 250.845C674.948 252.285 671.641 254.427 668.855 257.147C662.995 262.749 660.07 269.655 660.078 277.867V479.169C660.078 487.377 663.004 494.282 668.855 499.883C671.639 502.606 674.945 504.751 678.58 506.191C682.214 507.632 686.103 508.34 690.018 508.273C690.541 508.273 691.063 508.273 691.574 508.243C699.383 507.923 705.983 505.136 711.374 499.883C717.113 494.294 719.984 487.389 719.988 479.169V277.836C719.988 269.616 717.117 262.71 711.374 257.116Z" fill="#1B5A96"/>
<path d="M1061.93 407.265C1070.47 407.265 1077.58 404.411 1083.24 398.703C1088.9 392.994 1091.73 385.919 1091.72 377.478C1091.72 369.27 1088.9 362.306 1083.24 356.585C1077.58 350.865 1070.48 348.013 1061.93 348.029H1003.04V309.335H1061.93C1070.47 309.335 1077.58 306.425 1083.24 300.606C1086 297.829 1088.17 294.537 1089.63 290.921C1091.08 287.305 1091.8 283.439 1091.72 279.547C1091.72 271.34 1088.9 264.378 1083.24 258.661C1077.58 252.945 1070.48 250.09 1061.93 250.099H972.925C964.626 250.099 957.571 252.953 951.762 258.661C945.952 264.37 943.064 271.444 943.097 279.886V477.113C943.031 481.02 943.764 484.899 945.253 488.518C946.742 492.137 948.956 495.421 951.762 498.172C955.241 501.775 959.625 504.4 964.466 505.78C967.209 506.541 970.045 506.92 972.894 506.907H1061.9C1070.44 506.907 1077.55 504.053 1083.21 498.344C1088.87 492.636 1091.7 485.674 1091.69 477.458C1091.76 473.567 1091.05 469.7 1089.59 466.084C1088.14 462.469 1085.97 459.176 1083.21 456.4C1081.15 454.258 1078.76 452.447 1076.14 451.032C1071.75 448.745 1066.86 447.589 1061.9 447.671H1003.01V407.265H1061.93Z" fill="#1B5A96"/>
<path d="M1331.29 328.854C1330.95 328.066 1330.59 327.284 1330.24 326.509C1323.73 312.243 1314.7 299.238 1303.58 288.103C1291.74 276.361 1277.75 266.959 1262.35 260.403C1246.34 253.515 1229.05 250.015 1211.59 250.129H1157.55C1148.07 250.129 1140.16 253.207 1133.82 259.363C1127.47 265.518 1124.3 273.393 1124.29 282.988V475.74C1124.28 479.818 1125.17 483.848 1126.89 487.553C1130.28 495.013 1136.32 500.983 1143.86 504.334C1147.61 506.032 1151.69 506.908 1155.81 506.9H1211.59C1229.05 507.011 1246.34 503.512 1262.35 496.627C1293.44 483.419 1318.15 458.816 1331.29 427.979C1338.13 412.244 1341.61 395.285 1341.51 378.161C1341.59 361.203 1338.11 344.413 1331.29 328.854ZM1276.39 406.237C1273.11 414.455 1268.16 421.919 1261.84 428.166C1255.53 434.413 1247.98 439.311 1239.67 442.555C1230.74 446.054 1221.21 447.8 1211.6 447.695H1184.22V309.334H1213.32C1223.48 309.334 1232.78 311.048 1241.21 314.474C1249.33 317.699 1256.7 322.534 1262.86 328.682C1268.96 334.893 1273.68 342.299 1276.72 350.423C1276.97 351.07 1277.19 351.735 1277.42 352.393C1280.24 360.693 1281.65 369.402 1281.57 378.161C1281.58 388.428 1279.85 397.787 1276.39 406.237Z" fill="#1B5A96"/>
</g>
<defs>
<clipPath id="clip0_2008_3">
<rect width="1341.51" height="508.273" fill="white"/>
</clipPath>
</defs>
</svg>
