<svg width="184" height="69" viewBox="0 0 184 69" fill="none" xmlns="http://www.w3.org/2000/svg">
<g clip-path="url(#clip0_13_28)">
<path d="M86.9709 24.6134L90.1597 17.5295L92.8037 20.8797L86.9709 24.6134Z" fill="#316C7A"/>
<path d="M90.9469 16.6228L100.899 30.1704L105.619 24.1671L109.528 19.0152L110.824 6.49463L90.9469 16.6228Z" fill="#316C7A"/>
<path d="M111.345 1.45153L111.093 3.88412L121.791 0.90585L110.824 6.49471L109.529 19.0153L123.958 0L111.345 1.45153Z" fill="#FB9100"/>
<path d="M95.6536 3.2581L76.6221 5.44835L81.9724 9.91409L83.8387 11.4717L111.093 3.88401L111.345 1.45142L95.6536 3.2581Z" fill="#316C7A"/>
<path d="M85.0382 12.9978L86.7935 23.3975L89.3667 15.259L110.925 5.51447L111.017 4.61865L85.0382 12.9978Z" fill="#316C7A"/>
<path d="M111.017 4.61865L110.925 5.51447L117.614 2.49023L111.017 4.61865Z" fill="#316C7A"/>
<path d="M26.5162 65.0481C26.5162 66.2264 26.1201 67.1793 25.3278 67.9069C24.5356 68.6345 23.5375 68.9985 22.3338 68.9991C21.3782 69.008 20.4453 68.715 19.6735 68.1634C18.8813 67.6063 18.4544 66.8626 18.3929 65.9322L18.2503 62.6782H10.3106C9.55019 63.9183 8.89281 64.9411 8.33845 65.7467C7.88314 66.427 7.37479 67.0718 6.81795 67.6754C6.3575 68.1562 5.90587 68.4971 5.46307 68.6982C5.01613 68.8998 4.52941 69.0028 4.03733 68.9999C2.86543 68.9999 1.89928 68.6358 1.13889 67.9077C0.378493 67.1796 -0.00113576 66.2264 2.55228e-06 65.0481C2.55228e-06 64.7083 0.10302 64.3055 0.309056 63.8397C0.448558 63.5018 0.615574 63.1754 0.808492 62.8637L18.5329 36.4152C19.0574 35.6223 19.7656 34.9615 20.5998 34.4865C21.4273 34.0093 22.3714 33.7604 23.3318 33.7662C24.2504 33.7662 25.0108 34.0838 25.613 34.7189C26.2151 35.354 26.5162 36.1673 26.5162 37.159V65.0481ZM14.3078 55.0545H18.1223V49.393L14.3078 55.0545Z" fill="#316C7A"/>
<path d="M73.7133 55.0553H77.5278V49.393L73.7133 55.0553ZM85.9576 65.0481C85.9576 66.2264 85.5615 67.1793 84.7692 67.9069C83.977 68.6345 82.9792 68.9985 81.776 68.9991C80.8202 69.0082 79.8869 68.7151 79.1149 68.1634C78.3227 67.6063 77.8958 66.8626 77.8343 65.9322L77.6918 62.6782H69.7537C68.9927 63.9183 68.3354 64.9411 67.7816 65.7467C67.3263 66.427 66.8179 67.0718 66.2611 67.6754C65.8012 68.1562 65.3496 68.4971 64.9062 68.6982C64.4595 68.8997 63.9731 69.0027 63.4813 68.9999C62.3083 68.9999 61.3407 68.6358 60.5786 67.9077C59.8165 67.1796 59.4366 66.2264 59.4389 65.0481C59.4389 64.7083 59.5416 64.3055 59.7471 63.8397C59.8866 63.5018 60.0536 63.1754 60.2465 62.8637L77.9743 36.4152C78.4989 35.6223 79.207 34.9615 80.0412 34.4865C80.8687 34.0093 81.8128 33.7604 82.7732 33.7662C83.6918 33.7662 84.4522 34.0838 85.0544 34.7189C85.6566 35.354 85.9576 36.1673 85.9576 37.159V65.0481Z" fill="#316C7A"/>
<path d="M111.44 55.3805V64.8635C111.441 65.4073 111.333 65.946 111.121 66.4487C110.908 66.9513 110.597 67.4079 110.204 67.7923C109.811 68.1767 109.344 68.4813 108.83 68.6885C108.317 68.8958 107.766 69.0016 107.211 69C106.66 69.0042 106.116 68.885 105.619 68.6515C105.136 68.4245 104.701 68.1091 104.339 67.7223C103.973 67.3316 103.69 66.8733 103.507 66.3744C103.319 65.8756 103.223 65.3483 103.222 64.8167V38.0423C103.222 36.8646 103.594 35.8897 104.339 35.1175C105.083 34.3454 106.041 33.9579 107.213 33.9551H114.484C115.961 33.9403 117.425 34.2248 118.784 34.7908C120.064 35.3253 121.22 36.1082 122.182 37.0922C123.139 38.0789 123.89 39.2394 124.391 40.5083C124.923 41.8573 125.189 43.2926 125.176 44.7384C125.176 47.0326 124.724 48.9462 123.821 50.4794C122.918 52.0125 121.61 53.2755 119.899 54.2682L124.223 63.2866C124.505 63.8341 124.652 64.4391 124.65 65.0524C124.648 65.5557 124.543 66.0536 124.341 66.5164C124.136 66.9949 123.837 67.4293 123.461 67.795C123.073 68.1726 122.613 68.4727 122.107 68.6783C121.573 68.8969 120.999 69.0075 120.42 69.0033C119.682 69.0011 118.959 68.8002 118.33 68.4226C117.658 68.0289 117.114 67.4566 116.761 66.7721L111.44 55.3805ZM111.44 41.9933V47.7109H114.481C114.957 47.7109 115.352 47.6031 115.669 47.3858C115.973 47.1827 116.231 46.9218 116.429 46.6187C116.619 46.3261 116.755 46.0039 116.833 45.666C116.908 45.3613 116.948 45.0493 116.953 44.7359C116.948 44.4537 116.907 44.173 116.833 43.9003C116.751 43.5853 116.615 43.2864 116.429 43.017C116.229 42.7284 115.97 42.4832 115.669 42.2966C115.352 42.0953 114.957 41.9941 114.481 41.9941L111.44 41.9933Z" fill="#316C7A"/>
<path d="M59.5242 44.6432C58.6215 42.5829 57.332 40.7067 55.7225 39.112C54.0996 37.5158 52.1802 36.2378 50.0674 35.3465C49.4223 35.0697 48.7599 34.8333 48.0841 34.6387C46.468 34.1767 44.7922 33.9454 43.1086 33.9518H35.6956C34.3962 33.9518 33.3111 34.3696 32.4403 35.2053C31.5694 36.0409 31.134 37.11 31.134 38.4125V64.5844C31.1331 65.1378 31.2546 65.6849 31.49 66.188C31.9551 67.2009 32.7839 68.0115 33.819 68.466C34.3333 68.6966 34.8925 68.8154 35.4582 68.8145H43.1086C43.8984 68.815 44.6875 68.7653 45.4708 68.6657C47.0566 68.4666 48.6052 68.047 50.0699 67.4198C54.334 65.6265 57.7225 62.2861 59.5242 58.0997C60.4615 55.9637 60.9387 53.6614 60.9261 51.3367C60.9368 49.0347 60.4595 46.7554 59.5242 44.6432ZM51.9943 55.1482C51.5446 56.2639 50.8654 57.2773 49.9989 58.1254C49.1324 58.9736 48.0971 59.6384 46.9572 60.0785C46.6797 60.1888 46.3963 60.2841 46.1077 60.3685C45.133 60.6452 44.1226 60.7826 43.1077 60.7763H39.3513V41.9933H43.3459C44.7403 41.9933 46.0155 42.2259 47.1715 42.6911C47.268 42.7295 47.3619 42.7746 47.4566 42.8131C48.4597 43.2448 49.3706 43.8577 50.1416 44.6198C50.9786 45.463 51.6259 46.4684 52.0421 47.5713C52.4957 48.7765 52.7211 50.0525 52.7071 51.3367C52.7071 52.734 52.4695 54.0044 51.9943 55.1482Z" fill="#316C7A"/>
<path d="M97.5711 34.9043C96.8311 34.1924 95.9259 33.8144 94.8553 33.7704C94.7853 33.7704 94.7136 33.7704 94.6419 33.7704C94.105 33.7613 93.5717 33.8574 93.0732 34.0528C92.5748 34.2483 92.1212 34.5392 91.7392 34.9085C90.9355 35.669 90.534 36.6066 90.5345 37.7213V65.0481C90.5345 66.1623 90.9361 67.0999 91.7392 67.8609C92.1211 68.2304 92.5746 68.5214 93.0731 68.7169C93.5716 68.9123 94.105 69.0083 94.6419 68.999C94.7136 68.999 94.7853 68.999 94.8553 68.999C95.927 68.9556 96.8323 68.5776 97.5711 67.8651C98.3582 67.1013 98.7521 66.1623 98.7526 65.0481V37.7172C98.7526 36.6018 98.3588 35.6642 97.5711 34.9043Z" fill="#316C7A"/>
<path d="M145.654 55.2878C146.825 55.2878 147.799 54.9004 148.576 54.1254C149.353 53.3505 149.741 52.3901 149.739 51.2441C149.739 50.1299 149.352 49.1845 148.576 48.4079C147.8 47.6313 146.826 47.2449 145.654 47.2488H137.575V41.9934H145.654C146.825 41.9934 147.799 41.5984 148.576 40.8085C148.954 40.4315 149.252 39.9845 149.452 39.4937C149.651 39.0029 149.749 38.478 149.739 37.9497C149.739 36.8355 149.352 35.8903 148.576 35.1143C147.8 34.3383 146.826 33.9508 145.654 33.9519H133.445C132.307 33.9519 131.339 34.3394 130.542 35.1143C129.746 35.8892 129.349 36.85 129.354 37.9965V64.77C129.345 65.3003 129.445 65.827 129.65 66.3183C129.854 66.8096 130.158 67.2554 130.542 67.6288C131.02 68.1179 131.621 68.4743 132.285 68.6617C132.661 68.7649 133.05 68.8164 133.441 68.8146H145.649C146.821 68.8146 147.795 68.4271 148.572 67.6522C149.348 66.8773 149.736 65.9321 149.735 64.8168C149.746 64.2885 149.649 63.7635 149.45 63.2724C149.251 62.7812 148.954 62.3339 148.576 61.9564C148.293 61.6657 147.966 61.4198 147.606 61.2277C147.005 60.9172 146.333 60.7602 145.654 60.7714H137.575V55.2878H145.654Z" fill="#316C7A"/>
<path d="M182.599 44.6431C182.551 44.5362 182.503 44.4301 182.454 44.3248C181.561 42.3883 180.323 40.623 178.797 39.1119C177.175 37.5158 175.256 36.2378 173.143 35.3465C170.947 34.4114 168.576 33.9363 166.181 33.9518H158.769C157.469 33.9518 156.384 34.3696 155.513 35.2053C154.643 36.0409 154.206 37.1106 154.204 38.4142V64.5844C154.203 65.1379 154.324 65.685 154.561 66.188C155.026 67.2006 155.854 68.0111 156.889 68.466C157.403 68.6966 157.962 68.8154 158.528 68.8145H166.178C168.573 68.8299 170.945 68.3549 173.14 67.4198C177.406 65.6271 180.796 62.2867 182.599 58.0997C183.536 55.9635 184.012 53.6613 183.999 51.3367C184.01 49.0348 183.534 46.7555 182.599 44.6431ZM175.067 55.1482C174.617 56.2638 173.938 57.277 173.072 58.1251C172.205 58.9732 171.17 59.6381 170.03 60.0785C168.806 60.5535 167.498 60.7905 166.181 60.7763H162.424V41.9933H166.416C167.81 41.9933 169.085 42.2259 170.241 42.6911C171.355 43.1288 172.366 43.7851 173.211 44.6197C174.049 45.4628 174.696 46.4683 175.112 47.5713C175.146 47.6599 175.177 47.7493 175.208 47.8387C175.596 48.9656 175.788 50.1478 175.778 51.3367C175.779 52.734 175.543 54.0044 175.067 55.1482Z" fill="#316C7A"/>
</g>
<defs>
<clipPath id="clip0_13_28">
<rect width="184" height="69" fill="white"/>
</clipPath>
</defs>
</svg>
