<svg width="50" height="50" viewBox="0 0 50 50" fill="none" xmlns="http://www.w3.org/2000/svg">
<path d="M27.4166 0.905762V5.78743C38.0258 7.09243 45.5416 16.7349 44.2366 27.3441C43.1249 36.1408 36.2133 43.1249 27.4166 44.1641V48.9974C40.7083 47.6683 50.3749 35.8749 49.0458 22.5833C47.9583 11.1041 38.8474 2.04159 27.4166 0.905762ZM22.5833 0.978262C17.8708 1.43743 13.3758 3.24993 9.70243 6.29493L13.1583 9.87159C15.8649 7.69659 19.1274 6.29493 22.5833 5.81159V0.978262ZM6.29494 9.70243C3.27327 13.3693 1.41376 17.854 0.954102 22.5833H5.78744C6.2466 19.1516 7.59994 15.8891 9.75077 13.1583L6.29494 9.70243ZM33.4583 16.5416L21.6649 28.3349L16.5416 23.2116L13.9799 25.7733L21.6649 33.4583L36.0199 19.1033L33.4583 16.5416ZM0.978268 27.4166C1.4616 32.1533 3.32243 36.6241 6.3191 40.2974L9.75077 36.8416C7.61668 34.1098 6.25616 30.8545 5.8116 27.4166H0.978268ZM13.1583 40.3941L9.70243 43.7049C13.3632 46.7565 17.8448 48.6567 22.5833 49.1666V44.3333C19.1453 43.8887 15.8901 42.5282 13.1583 40.3941Z" fill="white"/>
</svg>
