<svg xmlns="http://www.w3.org/2000/svg" width="60" height="60" fill="none" xmlns:v="https://vecta.io/nano"><path d="M44.872 9.337H30.37c.733-1.761.063-3.842-1.632-4.82-1.842-1.063-4.206-.43-5.269 1.412l-1.968 3.409H7.891C5.746 9.337 4 11.082 4 13.228v24.248c0 2.145 1.746 3.891 3.891 3.891h12.057c.147 1.314.056 2.886-.254 4.421h-4.837a.86.86 0 0 0-.858.859.86.86 0 0 0 .858.858h22.244a.86.86 0 0 0 .858-.858.86.86 0 0 0-.858-.859h-4.885c-.337-1.55-.446-3.122-.302-4.421h12.153c2.145 0 3.891-1.745 3.891-3.891V12.423a3.09 3.09 0 0 0-3.086-3.087zM16.141 23.313l2.618 1.512-2.618 1.511v-3.023zm4.021.339l-3.707-2.14L23.49 9.327l3.707 2.14-7.035 12.184zM27.88 6.003c1.022.59 1.373 1.901.783 2.923l-.608 1.053-3.707-2.14.608-1.053c.59-1.022 1.901-1.373 2.923-.783zM7.891 11.054H20.51l-5.971 10.342a.86.86 0 0 0-.115.429v5.997a.86.86 0 0 0 .859.859h21.394a.86.86 0 0 0 .858-.859.86.86 0 0 0-.858-.859h-18.19l2.419-1.397a.86.86 0 0 0 .314-.314l8.198-14.2h15.455a1.37 1.37 0 0 1 1.369 1.37v21.194H5.717v-20.39c0-1.199.975-2.174 2.174-2.174zm22.573 34.734h-9.022c.277-1.526.36-3.077.233-4.421h8.513c-.123 1.333-.025 2.885.276 4.421zm13.603-6.138H7.891c-1.199 0-2.174-.975-2.174-2.174v-2.141h40.524v2.141c0 1.199-.975 2.174-2.174 2.174zm-6.532-17.021a.86.86 0 0 1-.858.858h-8.894a.86.86 0 0 1-.858-.858.86.86 0 0 1 .858-.859h8.894a.86.86 0 0 1 .858.859z" fill="#fff"/></svg>