<svg xmlns="http://www.w3.org/2000/svg" width="60" height="60" fill="#fff" xmlns:v="https://vecta.io/nano"><path d="M44.045 11.387h-1.679a5.37 5.37 0 0 0 .378-1.982c0-.817-.178-1.603-.53-2.336a.66.66 0 0 0-.877-.308.66.66 0 0 0-.309.877 4.05 4.05 0 0 1 .4 1.767c0 2.255-1.835 4.09-4.09 4.09s-4.09-1.835-4.09-4.09 1.835-4.09 4.09-4.09a4.05 4.05 0 0 1 1.837.436.66.66 0 0 0 .883-.291.66.66 0 0 0-.291-.883A5.35 5.35 0 0 0 37.339 4c-2.981 0-5.406 2.425-5.406 5.406a5.38 5.38 0 0 0 .378 1.982H29.98c-.974-1.43-2.614-2.37-4.47-2.37s-3.497.941-4.47 2.37H6.973C5.885 11.387 5 12.272 5 13.36v24.199c0 .846.688 1.535 1.535 1.535H18.61v1.561a3.25 3.25 0 0 0 2.586 3.176v.446h-.163a1.1 1.1 0 0 0-1.096 1.096v2.428a1.1 1.1 0 0 0 1.096 1.096h8.953a1.1 1.1 0 0 0 1.096-1.096v-2.428a1.1 1.1 0 0 0-1.096-1.096h-.306v-.42a3.25 3.25 0 0 0 2.729-3.203v-1.561h4.325a.66.66 0 0 0 .658-.658.66.66 0 0 0-.658-.658h-4.325V34.08c0-1.205-.961-2.218-2.143-2.258-.606-.02-1.181.201-1.617.622l-.019.019a2.21 2.21 0 0 0-3.12.001 2.21 2.21 0 0 0-1.56-.643c-.321 0-.627.069-.903.192v-2.737h9.392c-.029.227-.046.457-.046.691 0 2.981 2.425 5.406 5.406 5.406s5.406-2.425 5.406-5.406c0-2.909-2.311-5.288-5.193-5.4-.313-1.928-1.989-3.404-4.004-3.404H22.879a.66.66 0 0 0-.658.658.66.66 0 0 0 .658.658h11.128c1.326 0 2.434.946 2.687 2.198-1.785.372-3.248 1.627-3.914 3.285h-9.878a2.21 2.21 0 0 0-.533-.807 2.2 2.2 0 0 0-1.617-.622c-.896.03-1.665.62-1.985 1.43H17.01c-1.512 0-2.742-1.23-2.742-2.742s1.23-2.742 2.742-2.742h2.798a.66.66 0 0 0 .658-.658.66.66 0 0 0-.658-.658H17.01c-2.237 0-4.057 1.82-4.057 4.057s1.82 4.057 4.057 4.057h1.599v8.501H6.535a.22.22 0 0 1-.219-.219V17.291h14.616c.957 1.522 2.651 2.537 4.578 2.537s3.621-1.014 4.578-2.537h14.616v20.268a.22.22 0 0 1-.219.219h-4.681a.66.66 0 0 0-.658.658.66.66 0 0 0 .658.658h4.681c.846 0 1.535-.688 1.535-1.535V13.36c0-1.088-.885-1.973-1.973-1.973zm-6.247 14.491c2.255 0 4.09 1.835 4.09 4.09s-1.835 4.09-4.09 4.09-4.09-1.835-4.09-4.09 1.835-4.09 4.09-4.09zm-8.032 19.714v1.989h-8.514v-1.989h8.514zM19.925 28.79c0-.504.391-.927.871-.943a.9.9 0 0 1 .659.253c.177.172.275.402.275.649v5.291a.66.66 0 0 0 .658.658.66.66 0 0 0 .658-.658c0-.498.405-.903.903-.903s.903.405.903.903a.66.66 0 0 0 .658.658.66.66 0 0 0 .658-.658c0-.498.405-.903.903-.903s.903.405.903.903a.66.66 0 0 0 .658.658.66.66 0 0 0 .658-.658c0-.247.098-.477.275-.649a.9.9 0 0 1 .659-.253c.48.016.871.439.871.943v6.573a1.93 1.93 0 0 1-1.928 1.928h-.143a.66.66 0 0 0-.658.658v1.036h-5.853V43.24a.66.66 0 0 0-.658-.658 1.93 1.93 0 0 1-1.928-1.928V28.79zm-8.544-12.815H6.315V13.36a.66.66 0 0 1 .658-.658h4.409v3.274zm8.951 0h-7.635v-3.274h7.689a5.38 5.38 0 0 0-.053 3.273zm5.177 2.537c-2.255 0-4.09-1.835-4.09-4.09s1.835-4.09 4.09-4.09 4.09 1.835 4.09 4.09-1.835 4.09-4.09 4.09zm19.194-2.537H30.686a5.39 5.39 0 0 0 .229-1.553 5.38 5.38 0 0 0-.282-1.72h2.427c.989 1.281 2.539 2.109 4.279 2.109s3.29-.828 4.279-2.109h2.427a.66.66 0 0 1 .658.658v2.616zm-27.027 9.246a.66.66 0 0 0 .658.658h14.352a.66.66 0 0 0 .658-.658.66.66 0 0 0-.658-.658H18.333a.66.66 0 0 0-.658.658z"/><path d="M37.239 30.627h1.118c.195 0 .354.159.354.354s-.159.354-.354.354h-1.971a.66.66 0 0 0-.658.658.66.66 0 0 0 .658.658h.754v.381a.66.66 0 0 0 .658.658.66.66 0 0 0 .658-.658v-.386a1.67 1.67 0 0 0 1.571-1.665 1.67 1.67 0 0 0-1.669-1.669H37.24c-.195 0-.354-.159-.354-.354s.159-.354.354-.354h1.971a.66.66 0 0 0 .658-.658.66.66 0 0 0-.658-.658h-.754v-.381a.66.66 0 0 0-.658-.658.66.66 0 0 0-.658.658v.386a1.67 1.67 0 0 0-1.571 1.665 1.67 1.67 0 0 0 1.669 1.669zM26.068 13.764H24.95c-.195 0-.354-.159-.354-.354s.159-.354.354-.354h1.971a.66.66 0 0 0 .658-.658.66.66 0 0 0-.658-.658h-.754v-.381a.66.66 0 0 0-.658-.658.66.66 0 0 0-.658.658v.386a1.67 1.67 0 0 0-1.571 1.665 1.67 1.67 0 0 0 1.669 1.67h1.118c.195 0 .354.159.354.354s-.159.354-.354.354h-1.97a.66.66 0 0 0-.658.658.66.66 0 0 0 .658.658h.754v.381a.66.66 0 0 0 .658.658.66.66 0 0 0 .658-.658v-.386a1.67 1.67 0 0 0 1.571-1.665 1.67 1.67 0 0 0-1.669-1.669zm11.271-.639a.66.66 0 0 0 .658-.658v-.386a1.67 1.67 0 0 0 1.571-1.665 1.67 1.67 0 0 0-1.669-1.669H36.78c-.195 0-.354-.159-.354-.354s.159-.354.354-.354h1.971a.66.66 0 0 0 .658-.658.66.66 0 0 0-.658-.658h-.754v-.381a.66.66 0 0 0-.658-.658.66.66 0 0 0-.658.658v.386a1.67 1.67 0 0 0-1.571 1.665 1.67 1.67 0 0 0 1.669 1.67h1.118c.195 0 .354.159.354.354s-.159.354-.354.354h-1.971a.66.66 0 0 0-.658.658.66.66 0 0 0 .658.658h.754v.381a.66.66 0 0 0 .658.658zM7.708 34.56c0 1.088.885 1.973 1.973 1.973s1.973-.885 1.973-1.973-.885-1.973-1.973-1.973-1.973.885-1.973 1.973zm2.631 0a.66.66 0 0 1-.658.658.66.66 0 0 1-.658-.658.66.66 0 0 1 .658-.658.66.66 0 0 1 .658.658zm6.182 0c0-1.088-.885-1.973-1.973-1.973s-1.973.885-1.973 1.973.885 1.973 1.973 1.973 1.973-.885 1.973-1.973zm-2.631 0a.66.66 0 0 1 .658-.658.66.66 0 0 1 .658.658.66.66 0 0 1-.658.658.66.66 0 0 1-.658-.658z"/></svg>